<?xml version="1.0" encoding="UTF-8"?>
<svg id="Layer_2" data-name="Layer 2" xmlns="http://www.w3.org/2000/svg" xmlns:xlink="http://www.w3.org/1999/xlink" viewBox="0 0 59.05 54.43">
  <defs>
    <style>
      .cls-1 {
        fill: url(#linear-gradient);
        stroke-width: 0px;
      }
    </style>
    <linearGradient id="linear-gradient" x1="18.39" y1="44.9" x2="18.39" y2="-9.43" gradientTransform="translate(11.35 9.41) rotate(.37)" gradientUnits="userSpaceOnUse">
      <stop offset="0" stop-color="#f74866"/>
      <stop offset=".14" stop-color="#f5384e"/>
      <stop offset=".31" stop-color="#f42b3b"/>
      <stop offset=".48" stop-color="#f42430"/>
      <stop offset=".66" stop-color="#f4222d"/>
    </linearGradient>
  </defs>
  <g id="Layer_2-2" data-name="Layer 2">
    <path class="cls-1" d="M54.92,41.46c1.13,1.68,2.73,2.7,4.06,4.58v1.01c-2.37,2.53-4.53,5.13-7.09,7.26-2.6-2.43-5.8-4.33-7.92-7.56-.2,0,.48-1.07,1.08-1.53.88-2.14.03-4.29.31-6.43.24-5.43-1.07-10.73.31-16.14.82-2.94,6.87-4.78,4.34-7.81h-1.07c-1.8-1.56-3.94-1.31-6.09-1.79-.6-.41-1-.61-1.6-.95-.87-.21-1.54.33-1.95.93-1.39,6.89-.56,13.53-.6,20.3-.3,5.02-.94,10.18-.37,15.54.26,1.07.73,1.81.72,2.95,0,.54-.74,1-1.35.8-.8-.81-.78-2.95-2.33-2.43-2.22.99-3.84,2.92-5.66,4.25-2.73-2.16-4.59-4.85-6.99-7.62v-1.01c1.36-1.33,2.77-2.66,2.78-4.27.33-9.11.85-17.88-.69-27.07-.52-2.68-4-3.24-6.42-2.52-1.88.93-3.43,2.46-3.18,4.07.97,5.03,4.49,9.95,2.51,15.23-.75,2.68-2.91,4.6-4.8,6.74-.88,1.07-2.16,2.33-1.7,3.74.8,1.35,2.67,1.36,4.07,2.17,1.27,1.15,4.01,2.17,2.72,3.77-2.03,2.4-3.66,6.94-6.87,6.12-3.21-1.16-6.61-3.33-10.36-3.55C.26,50.22,0,49.41,0,49.21c2.97-4.07,7.75-6.18,8.92-11.26.55-2.14,1.03-4.62.04-6.77-1.59-3.36-2.97-6.99-4.02-10.41-1.32-3.49-2.57-6.45-3.69-9.94-.19-1.14.55-2.34,1.43-3.27C6.46,4.43,10.17.37,15.33,0v.67c-1.89,1.06-3.5,2.46-4.05,4.26-.28,1.07.19,2.15.18,3.22,0,1.21.79,2.15,1.05,3.22.86,1.95,3.01.89,4.02-.44,3.04-3.26,6.07-6.12,9.5-8.31,2.61.82,5.82,1.38,7.68,3.33.87.81-.03,4.89,2.12,3.77,3.03-1.59,4.92-4.79,7.82-6.72.6-.26,1.68-.26,2.14.01,3.81,1.7,7.01,3.66,11.09,4.7.67.21,2.14.55,2.13,1.62.38,2.68-3.64,3.19-4.12,5.53-1.98,5.88-1.15,12.12-.92,18.02.18,2.88-.58,5.96.95,8.58ZM36.95,14.21c0-.54-.87-.74-1.34-.54-.61.33-.61.87-.81,1.07-.56,3.01-.51,5.89-.33,8.98.23,5.83-.68,11.72.35,17.62,0,1.07-.02,2.88,1.39,2.69.54-.26.55-1.6.55-2.68.26-9.04.32-18.02.18-27.13Z"/>
  </g>
</svg>