<?xml version="1.0" encoding="UTF-8"?>
<svg id="Layer_2" data-name="Layer 2" xmlns="http://www.w3.org/2000/svg" xmlns:xlink="http://www.w3.org/1999/xlink" viewBox="0 0 300 240.27">
  <defs>
    <style>
      .cls-1 {
        fill: url(#linear-gradient-12);
      }

      .cls-1, .cls-2, .cls-3, .cls-4, .cls-5, .cls-6, .cls-7, .cls-8, .cls-9, .cls-10, .cls-11, .cls-12, .cls-13, .cls-14, .cls-15, .cls-16, .cls-17, .cls-18, .cls-19 {
        stroke-width: 0px;
      }

      .cls-2 {
        fill: url(#linear-gradient);
      }

      .cls-3 {
        fill: #ead82a;
      }

      .cls-4 {
        fill: #16161e;
      }

      .cls-5 {
        fill: url(#linear-gradient-6);
      }

      .cls-6 {
        fill: #e5e4f9;
      }

      .cls-7 {
        fill: #4417ff;
      }

      .cls-8 {
        fill: url(#linear-gradient-11);
      }

      .cls-9 {
        fill: #f4222d;
      }

      .cls-10 {
        fill: url(#linear-gradient-5);
      }

      .cls-11 {
        fill: url(#linear-gradient-13);
      }

      .cls-12 {
        fill: url(#linear-gradient-2);
      }

      .cls-13 {
        fill: url(#linear-gradient-7);
      }

      .cls-14 {
        fill: url(#linear-gradient-3);
      }

      .cls-15 {
        fill: url(#linear-gradient-9);
      }

      .cls-16 {
        fill: #e8972d;
      }

      .cls-17 {
        fill: url(#linear-gradient-8);
      }

      .cls-18 {
        fill: url(#linear-gradient-10);
      }

      .cls-19 {
        fill: url(#linear-gradient-4);
      }
    </style>
    <linearGradient id="linear-gradient" x1="140.5" y1="129.85" x2="159.88" y2="129.85" gradientUnits="userSpaceOnUse">
      <stop offset="0" stop-color="#f4222d"/>
      <stop offset=".01" stop-color="#f4232e"/>
      <stop offset=".22" stop-color="#f5374c"/>
      <stop offset=".4" stop-color="#f6435f"/>
      <stop offset=".52" stop-color="#f74866"/>
      <stop offset=".62" stop-color="#f64461"/>
      <stop offset=".73" stop-color="#f53b52"/>
      <stop offset=".86" stop-color="#f42b3b"/>
      <stop offset=".91" stop-color="#f4222d"/>
    </linearGradient>
    <linearGradient id="linear-gradient-2" x1="144.27" y1="109.71" x2="156.11" y2="109.71" xlink:href="#linear-gradient"/>
    <linearGradient id="linear-gradient-3" x1="171.78" y1="142.1" x2="171.78" y2="91.97" gradientUnits="userSpaceOnUse">
      <stop offset="0" stop-color="#2a2642"/>
      <stop offset=".07" stop-color="#2b254b"/>
      <stop offset=".19" stop-color="#2e2365"/>
      <stop offset=".34" stop-color="#341f8e"/>
      <stop offset=".51" stop-color="#3c1bc8"/>
      <stop offset=".66" stop-color="#4417ff"/>
    </linearGradient>
    <linearGradient id="linear-gradient-4" x1="150" y1="147.28" x2="150" y2="78.47" xlink:href="#linear-gradient-3"/>
    <linearGradient id="linear-gradient-5" x1="128.6" x2="128.6" xlink:href="#linear-gradient-3"/>
    <linearGradient id="linear-gradient-6" x1="150.19" y1="101.25" x2="150.19" y2="15.32" gradientUnits="userSpaceOnUse">
      <stop offset="0" stop-color="#f74866"/>
      <stop offset=".01" stop-color="#f64764"/>
      <stop offset=".44" stop-color="#f42c3c"/>
      <stop offset=".66" stop-color="#f4222d"/>
    </linearGradient>
    <linearGradient id="linear-gradient-7" x1="161.79" y1="253.27" x2="161.79" y2="206.55" gradientTransform="translate(-84.58 -56.69) rotate(-4.21)" gradientUnits="userSpaceOnUse">
      <stop offset="0" stop-color="#f74866"/>
      <stop offset=".14" stop-color="#f5384e"/>
      <stop offset=".31" stop-color="#f42b3b"/>
      <stop offset=".48" stop-color="#f42430"/>
      <stop offset=".66" stop-color="#f4222d"/>
    </linearGradient>
    <linearGradient id="linear-gradient-8" x1="200.17" y1="251.9" x2="200.17" y2="221.13" xlink:href="#linear-gradient-7"/>
    <linearGradient id="linear-gradient-9" x1="219.52" y1="252.35" x2="219.52" y2="209.74" xlink:href="#linear-gradient-7"/>
    <linearGradient id="linear-gradient-10" x1="238.14" y1="251.89" x2="238.14" y2="208.63" xlink:href="#linear-gradient-7"/>
    <linearGradient id="linear-gradient-11" x1="256.03" y1="251.66" x2="256.03" y2="212.18" xlink:href="#linear-gradient-7"/>
    <linearGradient id="linear-gradient-12" x1="269.88" y1="253.1" x2="269.88" y2="214.95" xlink:href="#linear-gradient-7"/>
    <linearGradient id="linear-gradient-13" x1="289" y1="252.88" x2="289" y2="222.19" xlink:href="#linear-gradient-7"/>
  </defs>
  <g id="Layer_2-2" data-name="Layer 2">
    <g>
      <path class="cls-6" d="M150,152.22c-8.02,0-16.12-2.99-24.07-8.89-6.58-4.89-12.89-11.61-18.75-19.98-6.32-9.04-10.33-17.44-12.57-22.89-2.97-7.23-4.61-13.48-4.61-17.62,0-3.37,1.06-5.9,3.17-7.5,1.57-1.2,3.6-1.78,6.21-1.78.91,0,1.89.07,2.98.21-1.05-3.56-1.58-7.23-1.58-10.96,0-9.79,3.74-20.63,10.31-29.94-3.41-4.66-6.69-11.5-5.12-19.43.71-3.56,2.32-6.89,4.78-9.89L113.65,0l2.6,3.76c2.11,3.05,4.76,5.58,7.87,7.54,2.43,1.53,5.09,2.65,7.92,3.35,5.88-2.83,11.98-4.26,18.14-4.26s12.27,1.43,18.14,4.26c2.83-.7,5.49-1.82,7.92-3.35,3.12-1.96,5.77-4.49,7.87-7.54l2.6-3.76,2.9,3.53c2.46,3,4.07,6.32,4.78,9.89,1.58,7.93-1.71,14.77-5.12,19.43,6.56,9.32,10.31,20.15,10.31,29.94,0,3.77-.54,7.48-1.62,11.08.92-.1,1.76-.15,2.54-.15,2.66,0,4.72.59,6.31,1.81,2.1,1.61,3.17,4.14,3.17,7.52,0,4.24-1.67,10.58-4.71,17.86-3.17,7.59-7.6,15.6-12.48,22.55-5.86,8.34-12.17,15.04-18.75,19.9-7.95,5.88-16.05,8.86-24.06,8.86Z"/>
      <path class="cls-6" d="M205.63,77.09c-2.27-1.75-5.85-1.69-10.58-.77,0,0,0,0,0,0,1.69-4.3,2.58-8.85,2.58-13.53,0-9.99-4.04-20.88-10.79-29.98,3.24-4.06,7.24-10.97,5.64-19.01-.65-3.24-2.12-6.28-4.37-9.02l-1.24-1.51-1.12,1.61c-2.26,3.27-5.1,5.99-8.45,8.09-3.24,2.04-6.46,3.15-9.21,3.76-5.52-2.76-11.57-4.37-17.91-4.37s-12.39,1.61-17.91,4.37c-2.74-.61-5.97-1.72-9.21-3.76-3.34-2.1-6.19-4.82-8.45-8.09l-1.12-1.61-1.24,1.51c-2.25,2.74-3.72,5.77-4.37,9.02-1.6,8.04,2.4,14.95,5.64,19.01-6.75,9.1-10.79,19.99-10.79,29.98,0,4.66.88,9.19,2.55,13.47,0,0,0,0,0,0-4.9-1.02-8.6-1.15-10.93.63-1.61,1.23-2.39,3.17-2.39,5.94,0,7.53,6.3,24.33,16.83,39.38,5.73,8.2,11.89,14.77,18.31,19.53,7.6,5.65,15.31,8.51,22.89,8.51s15.29-2.85,22.89-8.47c6.41-4.74,12.57-11.29,18.31-19.45,4.8-6.84,9.16-14.71,12.27-22.18,2.94-7.04,4.56-13.12,4.56-17.1,0-2.77-.78-4.72-2.39-5.96ZM172.85,55.34c1.74-1.24,3.38-2.66,4.91-4.14,1.11-1.07,2.17-2.18,3.18-3.29.92-1.02,1.8-2.08,2.66-3.15,0,0,0,0,0,0-.85,1.07-1.74,2.13-2.65,3.15-1.01,1.11-2.07,2.22-3.18,3.29-1.54,1.48-3.18,2.89-4.91,4.14.15.45.24.92.24,1.42,0,2.41-1.96,4.37-4.37,4.37,0,0,0,0,0,0,2.41,0,4.37-1.96,4.37-4.37,0-.5-.08-.97-.24-1.42ZM143.55,90.95s0,0,0,0v-15.86s0,0,0,0v15.86ZM149.01,89.73h0c-.82.32-2.12.75-3.72,1.01,1.6-.26,2.89-.69,3.72-1.01ZM145.26,90.76s0,0,0,0c0,0,0,0,0,0ZM156.45,75.16c-.7.14-1.35.3-1.96.47.61-.17,1.26-.33,1.96-.47h0ZM151.85,89.92c-.34-.12-.64-.24-.87-.34v-12.72s0,0,0,0v12.72c.23.1.52.21.87.34ZM156.45,90.92h0c-.86-.08-1.66-.21-2.38-.37.72.16,1.52.29,2.38.37ZM141.58,90.96h0c-.53-.03-1.07-.08-1.63-.17.55.09,1.1.14,1.63.17ZM136.12,89.62c.4.19.83.37,1.3.53-.47-.16-.9-.34-1.3-.53h0ZM134.14,88.46s0,0,0,0v-13.07s0,0,0,0v13.07ZM132.97,87.54c.22.18.48.4.79.63-.31-.23-.57-.45-.79-.63-.3-.25-.61-.53-.91-.83.3.3.61.58.91.83ZM132.48,75.91c.43-.16.85-.3,1.25-.41-.4.11-.82.25-1.25.41ZM128.68,80.22c-.03.92.23,1.87.67,2.8-.44-.93-.7-1.89-.67-2.8ZM171.03,83.02c.44-.93.7-1.89.67-2.8.03.92-.23,1.87-.67,2.8ZM170.5,77.48s0,0,0,0c0,0,0,0,0,0ZM165.86,75.29v13.43s0,0,0,0v-13.43c1.33.33,3.33.9,4.62,2.17-1.29-1.27-3.29-1.84-4.61-2.17ZM168.32,86.71c-.3.3-.61.58-.91.83-.23.19-.51.43-.84.67.33-.25.61-.48.84-.67.3-.25.61-.53.91-.83ZM153.02,58.71c.15,1.9,1.45,3.54,2.51,4.57,3.14,3.06,7.5,4.73,11.86,4.73,0,0,0,0,0,0-4.36,0-8.73-1.67-11.86-4.73-1.06-1.03-2.37-2.67-2.51-4.57,0,0,0,0,0,0ZM158.89,60.15c.29,0,.57,0,.85-.01h0c-.28,0-.56.01-.85.01ZM158.42,74.85v16.13s0,0,0,0v-16.13c.56-.07,1.15-.11,1.74-.14-.59.02-1.17.07-1.74.14ZM160.38,90.8c-.46.07-.91.12-1.36.15.44-.03.9-.08,1.36-.15ZM136.12,74.95h0c.43-.07.85-.13,1.28-.17-.42.04-.85.09-1.28.17ZM159.89,60.13s-.1,0-.15,0h0s.1,0,.15,0c1.82-.04,3.57-.35,5.25-.86,0,0,0,0,0,0-1.68.51-3.43.81-5.25.86Z"/>
      <g>
        <g>
          <g>
            <path class="cls-2" d="M154.86,115.42c-.08.08-.17.16-.25.24-.03.02-.06.05-.08.07-.07.06-.14.12-.21.18-.04.03-.08.06-.12.09-.06.05-.12.09-.18.14-.04.03-.08.06-.13.09-.06.04-.13.09-.19.13-.04.03-.08.05-.12.08-.1.06-.2.13-.31.18-.03.02-.06.03-.08.05-.08.05-.16.09-.24.13-.04.02-.09.04-.13.06-.07.03-.14.06-.21.09-.04.02-.09.04-.13.06-.07.03-.15.06-.22.08-.04.01-.08.03-.12.04-.11.04-.23.07-.34.1-.02,0-.03,0-.05.01-.1.03-.21.05-.31.07-.04,0-.08.02-.12.02-.08.02-.16.03-.24.04-.04,0-.09.01-.13.02-.08,0-.17.02-.25.03-.04,0-.08,0-.12,0-.12,0-.25.01-.37.01s-.25,0-.37-.01c-.04,0-.08,0-.12,0-.08,0-.17-.02-.25-.03-.04,0-.09-.01-.13-.02-.08-.01-.16-.03-.24-.04-.04,0-.08-.01-.12-.02-.1-.02-.21-.05-.31-.07-.02,0-.03,0-.05-.01-.11-.03-.23-.07-.34-.1-.04-.01-.08-.03-.12-.04-.07-.03-.15-.05-.22-.08-.05-.02-.09-.04-.13-.06-.07-.03-.14-.06-.21-.09-.04-.02-.09-.04-.13-.06-.08-.04-.16-.08-.24-.13-.03-.01-.06-.03-.08-.05-.1-.06-.21-.12-.31-.18-.04-.03-.08-.05-.12-.08-.07-.04-.13-.09-.19-.13-.04-.03-.09-.06-.13-.09-.06-.05-.12-.09-.18-.14-.04-.03-.08-.06-.12-.09-.07-.06-.14-.12-.21-.18-.03-.02-.05-.05-.08-.07-.09-.08-.17-.16-.25-.24-2,5.37-5.08,14.77-5.02,21.71,2.54,3.62,5.72,6.26,9.69,7.16,3.97-.9,7.15-3.54,9.69-7.16.06-6.94-3.02-16.34-5.02-21.71Z"/>
            <path class="cls-12" d="M144.29,107.66c0,.19.02.38.04.56,0,0,0,.02,0,.03.02.18.04.35.07.52,0,.05.02.09.02.14.02.12.04.24.07.36,0,.05.02.11.03.16.03.15.06.3.1.44,0,.02,0,.04.01.05.05.19.11.38.17.57.01.04.02.07.04.11.06.19.13.37.2.55,0,.02.02.04.03.07.08.19.16.38.25.56,0,0,0,.02.01.02.09.19.19.37.28.54,0,0,0,0,0,.01.09.17.2.33.3.49.02.02.03.04.05.07.1.15.21.29.32.43.03.03.05.07.08.1.04.04.07.09.11.13.04.04.07.08.1.12.04.04.07.08.11.12s.07.08.11.12c.04.04.07.07.11.11.05.04.09.08.14.12.03.03.06.06.09.09.07.07.15.13.23.19.03.02.06.04.09.07.05.04.1.08.16.12.03.02.07.05.1.07.05.03.1.07.15.09.04.02.07.04.11.07.05.03.1.06.15.08.04.02.08.04.12.06.05.03.1.05.15.07.04.02.08.04.12.05.05.02.1.04.15.06.04.02.08.03.12.05.05.02.1.04.16.05.04.01.08.03.12.04.05.01.11.03.16.04.04,0,.08.02.12.03.06.01.11.02.17.03.04,0,.07.01.11.02.06,0,.13.02.19.02.03,0,.07,0,.1,0,.1,0,.19,0,.29,0s.2,0,.29,0c.03,0,.06,0,.1,0,.06,0,.13-.01.19-.02.04,0,.07-.01.11-.02.06,0,.11-.02.17-.03.04,0,.08-.02.12-.03.05-.01.11-.03.16-.04.04-.01.08-.02.12-.04.05-.02.1-.03.16-.05.04-.01.08-.03.12-.05.05-.02.1-.04.15-.06.04-.02.08-.03.12-.05.05-.02.1-.05.15-.07.04-.02.08-.04.12-.06.05-.03.1-.05.15-.08.04-.02.07-.04.11-.07.05-.03.1-.06.15-.09.03-.02.07-.05.1-.07.05-.04.11-.08.16-.12.03-.02.06-.04.09-.07.08-.06.16-.12.23-.19.03-.03.06-.06.09-.09.05-.04.09-.08.14-.12.04-.03.07-.07.11-.11.04-.04.08-.08.11-.12s.07-.08.11-.12c.04-.04.07-.08.1-.12.04-.04.07-.09.11-.13.03-.03.06-.07.08-.1.11-.14.22-.28.32-.43.01-.02.03-.05.05-.07.1-.16.21-.32.3-.49,0,0,0,0,0-.01.1-.18.19-.36.28-.54,0,0,0-.02.01-.02.09-.18.17-.37.25-.56,0-.02.02-.04.03-.07.07-.18.14-.36.2-.55.01-.04.02-.07.04-.11.06-.19.12-.38.17-.57,0-.02,0-.03.01-.05.04-.14.07-.29.1-.44.01-.05.02-.1.03-.16.02-.12.05-.24.07-.36,0-.05.02-.09.02-.14.03-.17.05-.34.07-.52,0,0,0-.02,0-.03.02-.19.03-.37.04-.56,0-.09,0-.19.01-.29,0-.12,0-.25,0-.37,0-1.08-.14-2.11-.4-3.07-1.82.18-3.66.28-5.52.28s-3.7-.09-5.52-.28c-.26.95-.4,1.98-.4,3.07,0,.13,0,.25,0,.37,0,.1,0,.19.01.29Z"/>
          </g>
          <g>
            <path class="cls-6" d="M157.92,109.12l2.91,2.32,7-10.18c-3.25,1.14-6.65,1.95-10.15,2.44.26,1.04.4,2.15.4,3.3,0,.73-.06,1.44-.16,2.12Z"/>
            <path class="cls-6" d="M169.6,102.17l-8.35,12.13-3.85-3.07s-.02.05-.03.07c-.06.17-.12.34-.18.5-.01.03-.03.06-.04.09-.08.19-.16.38-.24.57,0,.02-.02.03-.02.05-.08.16-.16.33-.24.48-.02.04-.04.08-.06.11-.09.17-.19.33-.29.5,0,0,0,0,0,0,1.76,4.56,4.76,13.18,5.42,20.54,5.21-9.54,7.16-23.42,7.88-31.97Z"/>
            <path class="cls-6" d="M142.46,109.12c-.11-.68-.16-1.39-.16-2.12,0-1.15.14-2.26.4-3.3-3.5-.48-6.9-1.3-10.15-2.44l7,10.18,2.91-2.32Z"/>
            <path class="cls-6" d="M144.08,113.61s0,0,0,0c-.1-.16-.2-.33-.29-.5-.02-.04-.04-.08-.06-.11-.08-.16-.17-.32-.24-.48,0-.02-.02-.03-.02-.05-.09-.19-.17-.37-.24-.57-.01-.03-.02-.06-.04-.09-.06-.16-.12-.33-.18-.5,0-.02-.02-.05-.03-.07l-3.85,3.07-8.35-12.13c.72,8.56,2.67,22.43,7.88,31.97.66-7.36,3.66-15.97,5.42-20.54Z"/>
          </g>
          <g>
            <path class="cls-14" d="M162.91,136.04c-.35.59-.7,1.16-1.07,1.71h0c-.57.86-1.17,1.65-1.79,2.38-.61.72-1.23,1.38-1.88,1.97,1.14-.54,2.25-1.11,3.34-1.71.02-.01.05-.03.07-.04,4.59-2.56,8.66-5.7,12.19-9.39,7.14-7.48,13.53-18.8,11.07-22.2-.1-.14-.48-.55-1.06-1.17-1.37-1.48-2.03-2.25-2.42-2.72-.33-.39-.46-.55-.71-.76l-4.17-3.61,4.63,1.74c.3-.94.88-1.78,1.68-2.39h.02c.71-.56,2.03-1.57,2.24-1.92.76-1.31-.12-3.61-1.18-5.96-.07.06-.13.12-.2.18-3.55,3.08-7.55,5.62-11.89,7.55-.3,4.58-.98,11.62-2.54,18.79-1.56,7.16-3.69,13.07-6.31,17.55Z"/>
            <path class="cls-19" d="M203.83,79.43c-1.69-1.3-5.47-.86-10.29.24-2.02,3.95-4.75,7.62-8.15,10.89,1.37,3,2.67,6.08,1.36,8.35-.37.64-1.33,1.4-2.75,2.49h-.02c-.53.42-.91,1.01-1.06,1.66-.04.16-.08.31-.14.44.03.03.05.06.08.09.41.48,1.02,1.21,2.37,2.65.73.79,1.04,1.11,1.21,1.36,3.63,5.02-4.56,17.72-11.25,24.72-6.51,6.82-14.83,11.82-24.72,14.85l-.29-.94-.29.94c-9.89-3.03-18.2-8.02-24.72-14.85-6.68-7-14.88-19.7-11.25-24.72.18-.24.48-.57,1.21-1.36,1.35-1.45,1.96-2.17,2.37-2.65.03-.03.05-.06.08-.09-.06-.13-.11-.28-.14-.44-.15-.65-.52-1.24-1.06-1.65h-.02c-1.42-1.1-2.38-1.87-2.75-2.5-1.32-2.28,0-5.35,1.36-8.35-3.41-3.28-6.15-6.97-8.17-10.93-2.93-.7-5.5-1.16-7.46-1.16-1.39,0-2.48.23-3.19.78-.82.63-1.23,1.8-1.23,3.58,0,7.08,6.1,23.11,16.3,37.69,6.99,10,21.33,26.77,38.77,26.77s31.78-16.71,38.78-26.66c10.2-14.53,16.29-30.52,16.29-37.58,0-1.79-.4-2.97-1.24-3.61Z"/>
            <path class="cls-10" d="M117.58,99.84h.02c.79.62,1.38,1.46,1.68,2.41l4.63-1.74-4.17,3.61c-.25.22-.38.37-.71.76-.39.46-1.05,1.24-2.42,2.72-.58.62-.96,1.03-1.06,1.17-2.46,3.4,3.94,14.72,11.07,22.2,3.52,3.69,7.6,6.83,12.19,9.39.02.01.05.03.07.04,1.08.6,2.2,1.17,3.34,1.71-.65-.6-1.27-1.26-1.88-1.97-.62-.73-1.22-1.52-1.79-2.38h0c-.37-.55-.73-1.12-1.07-1.71-2.63-4.48-4.75-10.39-6.31-17.55-1.56-7.17-2.25-14.21-2.54-18.79-4.33-1.94-8.34-4.47-11.89-7.55-.07-.06-.14-.12-.2-.18-1.05,2.35-1.94,4.65-1.18,5.96.21.35,1.53,1.37,2.24,1.91Z"/>
          </g>
          <path class="cls-4" d="M205.63,77.09c-2.27-1.75-5.85-1.69-10.58-.77-1.13.22-2.33.49-3.59.79-.56,1.21-1.19,2.39-1.89,3.53-1.52,2.51-3.36,4.85-5.46,6.99-.5.5-1,1-1.53,1.48-2.43,2.23-5.16,4.22-8.14,5.9-1.45.82-2.96,1.57-4.52,2.24-4.13,1.78-8.63,3.02-13.36,3.6-.71.09-1.43.17-2.15.22-1.39.11-2.81.17-4.23.17s-2.84-.06-4.23-.17c-.72-.06-1.44-.13-2.15-.22-4.73-.59-9.23-1.83-13.36-3.6-1.56-.67-3.07-1.42-4.52-2.24-2.98-1.68-5.71-3.66-8.14-5.9-.52-.48-1.03-.97-1.53-1.48-2.1-2.14-3.94-4.49-5.46-6.99-.7-1.15-1.34-2.34-1.9-3.55-1.26-.32-2.46-.6-3.6-.83-4.9-1.02-8.6-1.15-10.93.63-1.61,1.23-2.39,3.17-2.39,5.94,0,7.53,6.3,24.33,16.83,39.38,5.73,8.2,11.89,14.77,18.31,19.53,7.6,5.65,15.31,8.51,22.89,8.51s15.29-2.85,22.89-8.47c6.41-4.74,12.57-11.29,18.31-19.45,4.8-6.84,9.16-14.71,12.27-22.18,2.94-7.04,4.56-13.12,4.56-17.1,0-2.77-.78-4.72-2.39-5.96ZM171.77,99.7c4.33-1.94,8.34-4.47,11.89-7.55.07-.06.14-.12.2-.18,1.05,2.35,1.94,4.65,1.18,5.96-.21.35-1.53,1.37-2.24,1.91h-.02c-.79.62-1.38,1.46-1.68,2.41l-4.63-1.74,4.17,3.61c.25.22.38.37.71.76.39.46,1.05,1.24,2.42,2.72.58.62.96,1.03,1.06,1.17,2.46,3.4-3.94,14.72-11.07,22.2-3.52,3.69-7.6,6.83-12.19,9.39-.02.01-.05.03-.07.04-1.08.6-2.2,1.17-3.34,1.71.65-.6,1.27-1.26,1.88-1.97.62-.73,1.22-1.52,1.79-2.38h0c.37-.55.73-1.12,1.07-1.71,2.63-4.48,4.75-10.39,6.31-17.55,1.56-7.17,2.25-14.21,2.54-18.79ZM150.19,144.28c-3.97-.9-7.15-3.54-9.69-7.16-.06-6.94,3.02-16.34,5.02-21.71.08.08.17.16.25.24.03.02.06.05.08.07.07.06.14.12.21.18.04.03.08.06.12.09.06.05.12.09.18.14.04.03.08.06.13.09.06.04.13.09.19.13.04.03.08.05.12.08.1.06.2.13.31.18.03.02.06.03.08.05.08.05.16.09.24.13.04.02.09.04.13.06.07.03.14.06.21.09.04.02.09.04.13.06.07.03.15.06.22.08.04.01.08.03.12.04.11.04.23.07.34.1.02,0,.03,0,.05.01.1.03.21.05.31.07.04,0,.08.02.12.02.08.02.16.03.24.04.04,0,.09.01.13.02.08,0,.17.02.25.03.04,0,.08,0,.12,0,.12,0,.25.01.37.01s.25,0,.37-.01c.04,0,.08,0,.12,0,.08,0,.17-.02.25-.03.04,0,.09-.01.13-.02.08-.01.16-.03.24-.04.04,0,.08-.01.12-.02.1-.02.21-.05.31-.07.02,0,.03,0,.05-.01.11-.03.23-.07.34-.1.04-.01.08-.03.12-.04.07-.03.15-.05.22-.08.05-.02.09-.04.13-.06.07-.03.14-.06.21-.09.04-.02.09-.04.13-.06.08-.04.16-.08.24-.13.03-.01.06-.03.08-.05.1-.06.21-.12.31-.18.04-.03.08-.05.12-.08.07-.04.13-.09.19-.13.04-.03.09-.06.13-.09.06-.05.12-.09.18-.14.04-.03.08-.06.12-.09.07-.06.14-.12.21-.18.03-.02.05-.05.08-.07.09-.08.17-.16.25-.24,2,5.37,5.08,14.77,5.02,21.71-2.54,3.62-5.72,6.26-9.69,7.16ZM167.83,101.27l-7,10.18-2.91-2.32c.11-.68.16-1.39.16-2.12,0-1.15-.14-2.26-.4-3.3,3.5-.48,6.9-1.3,10.15-2.44ZM156.3,113.61c.1-.16.2-.33.29-.5.02-.04.04-.08.06-.11.08-.16.17-.32.24-.48,0-.02.02-.03.02-.05.09-.19.17-.37.24-.57.01-.03.02-.06.04-.09.06-.16.12-.33.18-.5,0-.02.02-.05.03-.07l3.85,3.07,8.35-12.13c-.72,8.56-2.67,22.43-7.88,31.97-.66-7.36-3.66-15.97-5.42-20.54,0,0,0,0,0,0ZM144.67,103.94c1.82.18,3.66.28,5.52.28s3.7-.09,5.52-.28c.26.95.4,1.98.4,3.07,0,.13,0,.25,0,.37,0,.1,0,.19-.01.29,0,.19-.02.38-.04.56,0,0,0,.02,0,.03-.02.18-.04.35-.07.52,0,.05-.02.09-.02.14-.02.12-.04.24-.07.36,0,.05-.02.11-.03.16-.03.15-.06.3-.1.44,0,.02,0,.04-.01.05-.05.19-.11.38-.17.57-.01.04-.02.07-.04.11-.06.19-.13.37-.2.55,0,.02-.02.04-.03.07-.08.19-.16.38-.25.56,0,0,0,.02-.01.02-.09.19-.19.37-.28.54,0,0,0,0,0,.01-.09.17-.2.33-.3.49-.02.02-.03.04-.05.07-.1.15-.21.29-.32.43-.03.03-.05.07-.08.1-.04.04-.07.09-.11.13-.04.04-.07.08-.1.12-.04.04-.07.08-.11.12s-.07.08-.11.12c-.04.04-.07.07-.11.11-.05.04-.09.08-.14.12-.03.03-.06.06-.09.09-.07.07-.15.13-.23.19-.03.02-.06.04-.09.07-.05.04-.1.08-.16.12-.03.02-.07.05-.1.07-.05.03-.1.07-.15.09-.04.02-.07.04-.11.07-.05.03-.1.06-.15.08-.04.02-.08.04-.12.06-.05.03-.1.05-.15.07-.04.02-.08.04-.12.05-.05.02-.1.04-.15.06-.04.02-.08.03-.12.05-.05.02-.1.04-.16.05-.04.01-.08.03-.12.04-.05.01-.11.03-.16.04-.04,0-.08.02-.12.03-.06.01-.11.02-.17.03-.04,0-.07.01-.11.02-.06,0-.13.02-.19.02-.03,0-.07,0-.1,0-.1,0-.19,0-.29,0s-.2,0-.29,0c-.03,0-.06,0-.1,0-.06,0-.13-.01-.19-.02-.04,0-.07-.01-.11-.02-.06,0-.11-.02-.17-.03-.04,0-.08-.02-.12-.03-.05-.01-.11-.03-.16-.04-.04-.01-.08-.02-.12-.04-.05-.02-.1-.03-.16-.05-.04-.01-.08-.03-.12-.05-.05-.02-.1-.04-.15-.06-.04-.02-.08-.03-.12-.05-.05-.02-.1-.05-.15-.07-.04-.02-.08-.04-.12-.06-.05-.03-.1-.05-.15-.08-.04-.02-.07-.04-.11-.07-.05-.03-.1-.06-.15-.09-.03-.02-.07-.05-.1-.07-.05-.04-.11-.08-.16-.12-.03-.02-.06-.04-.09-.07-.08-.06-.16-.12-.23-.19-.03-.03-.06-.06-.09-.09-.05-.04-.09-.08-.14-.12-.04-.03-.07-.07-.11-.11-.04-.04-.08-.08-.11-.12s-.07-.08-.11-.12c-.04-.04-.07-.08-.1-.12-.04-.04-.07-.09-.11-.13-.03-.03-.06-.07-.08-.1-.11-.14-.22-.28-.32-.43-.01-.02-.03-.05-.05-.07-.1-.16-.21-.32-.3-.49,0,0,0,0,0-.01-.1-.18-.19-.36-.28-.54,0,0,0-.02-.01-.02-.09-.18-.17-.37-.25-.56,0-.02-.02-.04-.03-.07-.07-.18-.14-.36-.2-.55-.01-.04-.02-.07-.04-.11-.06-.19-.12-.38-.17-.57,0-.02,0-.03-.01-.05-.04-.14-.07-.29-.1-.44-.01-.05-.02-.1-.03-.16-.02-.12-.05-.24-.07-.36,0-.05-.02-.09-.02-.14-.03-.17-.05-.34-.07-.52,0,0,0-.02,0-.03-.02-.19-.03-.37-.04-.56,0-.09,0-.19-.01-.29,0-.12,0-.25,0-.37,0-1.08.14-2.11.4-3.07ZM142.7,103.7c-.26,1.04-.4,2.15-.4,3.3,0,.73.06,1.44.16,2.12l-2.91,2.32-7-10.18c3.25,1.14,6.65,1.95,10.15,2.44ZM139.13,114.31l3.85-3.07s.02.05.03.07c.06.17.12.34.18.5.01.03.03.06.04.09.08.19.16.38.24.57,0,.02.02.03.02.05.08.16.16.33.24.48.02.04.04.08.06.11.09.17.19.33.29.5,0,0,0,0,0,0-1.76,4.56-4.76,13.18-5.42,20.54-5.21-9.54-7.16-23.42-7.88-31.97l8.35,12.13ZM116.52,91.97c.07.06.13.12.2.18,3.55,3.08,7.55,5.62,11.89,7.55.3,4.58.98,11.62,2.54,18.79,1.56,7.16,3.69,13.07,6.31,17.55.35.59.7,1.16,1.07,1.71h0c.57.86,1.17,1.65,1.79,2.38.61.72,1.23,1.38,1.88,1.97-1.14-.54-2.25-1.11-3.34-1.71-.02-.01-.05-.03-.07-.04-4.59-2.56-8.66-5.7-12.19-9.39-7.14-7.48-13.53-18.8-11.07-22.2.1-.14.48-.55,1.06-1.17,1.37-1.48,2.03-2.25,2.42-2.72.33-.39.46-.55.71-.76l4.17-3.61-4.63,1.74c-.3-.94-.88-1.78-1.68-2.39h-.02c-.71-.56-2.03-1.57-2.24-1.92-.76-1.31.12-3.61,1.18-5.96ZM188.78,120.62c-6.99,9.96-21.33,26.66-38.78,26.66s-31.78-16.77-38.77-26.77c-10.2-14.58-16.3-30.61-16.3-37.69,0-1.78.4-2.95,1.23-3.58.71-.54,1.8-.78,3.19-.78,1.97,0,4.53.47,7.46,1.16,2.02,3.96,4.76,7.65,8.17,10.93-1.37,3-2.67,6.08-1.36,8.35.37.64,1.33,1.4,2.75,2.49h.02c.53.42.91,1.01,1.06,1.66.04.16.08.31.14.44-.03.03-.05.06-.08.09-.41.48-1.02,1.21-2.37,2.65-.73.79-1.04,1.11-1.21,1.36-3.63,5.02,4.56,17.72,11.25,24.72,6.51,6.82,14.83,11.82,24.72,14.85l.29-.94.29.94c9.89-3.03,18.2-8.02,24.72-14.85,6.68-7,14.88-19.7,11.25-24.72-.18-.24-.48-.57-1.21-1.36-1.35-1.45-1.96-2.17-2.37-2.65-.03-.03-.05-.06-.08-.09.06-.13.11-.28.14-.44.15-.65.52-1.24,1.06-1.65h.02c1.42-1.1,2.38-1.87,2.75-2.5,1.32-2.28,0-5.35-1.36-8.35,3.4-3.27,6.13-6.95,8.15-10.89,4.82-1.1,8.6-1.53,10.29-.24.83.64,1.24,1.82,1.24,3.61,0,7.06-6.09,23.05-16.29,37.58Z"/>
          <g>
            <ellipse class="cls-9" cx="178.39" cy="117.73" rx="8.74" ry="4.72" transform="translate(24.31 265.85) rotate(-77.29)"/>
            <ellipse class="cls-3" cx="179.81" cy="118.05" rx="8.74" ry="4.72" transform="translate(25.11 267.49) rotate(-77.29)"/>
            <path class="cls-9" d="M182.76,116.92c-.16.86-.41,1.69-.73,2.5-.07.18.08.42.26.46.22.05.38-.07.46-.26.32-.81.56-1.65.73-2.5.04-.19-.05-.41-.26-.46-.18-.04-.42.06-.46.26h0Z"/>
            <path class="cls-9" d="M180.98,114c-.41.31-.85.61-1.19,1-.36.42-.56.93-.71,1.46-.05.19.06.42.26.46s.41-.06.46-.26c.03-.11.06-.23.1-.34.02-.06.04-.11.06-.17,0-.02.02-.05.03-.07,0-.02,0-.02,0,0l.02-.04c.05-.11.1-.21.17-.31.03-.05.06-.1.1-.14.04-.05-.03.04.01-.01.02-.02.04-.05.06-.07.15-.16.31-.31.48-.45.02-.02.05-.04.07-.06.01-.01.04-.04.01-.01.04-.03.09-.07.14-.1.1-.08.2-.15.3-.23.16-.12.25-.33.13-.51-.1-.15-.35-.26-.51-.13h0Z"/>
            <path class="cls-9" d="M181.27,121.67c-.59.35-1.26.56-1.95.59-.63.03-1.28-.02-1.62-.61-.74-1.3-.26-2.88.12-4.2.14-.46-.59-.66-.72-.2-.46,1.56-.97,3.53.08,4.98.49.68,1.31.81,2.09.79.84-.03,1.66-.27,2.38-.7.41-.25.04-.89-.38-.65h0Z"/>
            <path class="cls-9" d="M178.35,117.02c-.32-.17-.67-.3-1.02-.37-.1-.02-.2-.01-.29.04-.08.05-.15.13-.17.22-.02.1-.02.2.04.29.05.08.13.15.22.17.23.05.45.11.67.21l-.09-.04c.09.04.18.08.26.13s.19.06.29.04c.09-.02.18-.09.22-.17.05-.09.07-.19.04-.29-.03-.09-.09-.18-.17-.22h0Z"/>
            <path class="cls-9" d="M181.23,121.46c.03.22.03.45,0,.67v-.1c0,.16-.04.32-.1.47-.06.19.07.42.26.46.21.05.4-.06.46-.26.13-.4.18-.83.12-1.25-.01-.1-.03-.19-.11-.27-.07-.07-.17-.11-.27-.11s-.2.04-.27.11c-.06.07-.12.17-.11.27h0Z"/>
            <path class="cls-9" d="M182.79,116.87c-.09.37-.19.73-.31,1.08-.06.18-.12.35-.19.52-.03.09-.07.18-.1.27-.04.1-.05.11-.09.21-.08.18-.06.41.13.51.16.09.43.06.51-.13.32-.73.58-1.49.76-2.27.05-.19-.06-.42-.26-.46s-.41.06-.46.26h0Z"/>
            <path class="cls-9" d="M182.5,116.81c-.28.75-.53,1.51-.76,2.27-.06.19.07.42.26.46s.4-.06.46-.26c.23-.77.48-1.52.76-2.27.07-.18-.08-.42-.26-.46-.21-.05-.39.06-.46.26h0Z"/>
            <path class="cls-9" d="M182.59,116.88c-.12.02-.21.03-.31.1-.1.06-.16.14-.23.23-.09.13-.14.28-.17.43-.09.37-.18.73-.27,1.1-.05.19.06.42.26.46s.41-.06.46-.26c.08-.32.15-.63.23-.95.02-.07.03-.14.05-.21,0-.03.02-.05.02-.08,0-.01,0-.03.01-.04.01-.04,0-.03-.01.03.02-.02.02-.05.04-.07,0-.01.01-.02.02-.03-.04.05-.05.06-.02.03.07-.07-.06.03,0,0,.03-.02.02-.01-.04.01.04,0,.02,0-.04,0,.1-.01.19-.03.27-.11.07-.07.11-.17.11-.27,0-.18-.17-.4-.38-.38h0Z"/>
            <path class="cls-9" d="M180.76,114.3c-.03.06-.07.11-.1.16,0,0-.06.09-.03.05s-.04.05-.05.06c-.08.09-.16.18-.25.27-.18.18-.38.34-.57.51-.4.36-.77.76-.94,1.29-.06.19.07.42.26.46.21.05.4-.06.46-.26,0-.03.02-.06.03-.08.03-.08-.03.05,0-.02.03-.06.06-.11.09-.17.03-.05.06-.1.1-.15,0-.01.02-.02.03-.04-.03.03-.03.04-.01.02.02-.02.04-.05.06-.07.16-.19.34-.35.53-.52.39-.34.79-.68,1.05-1.14.1-.17.05-.42-.13-.51s-.41-.05-.51.13h0Z"/>
            <path class="cls-9" d="M180.28,114.14c-.73.33-1.35.96-1.67,1.69-.04.1-.07.18-.04.29.02.09.09.18.17.22.16.09.43.06.51-.13.07-.17.16-.33.26-.48.02-.04.05-.07.08-.11.05-.06-.01,0,0,0,0,0,.04-.05.05-.06.06-.07.12-.14.18-.21s.13-.12.19-.18c0,0,.1-.09.1-.08-.04.03-.05.04-.02.01h.02s.04-.04.06-.06c.15-.11.31-.2.48-.27.18-.08.24-.35.13-.51-.12-.19-.32-.22-.51-.13h0Z"/>
            <path class="cls-9" d="M179.64,114.96l-.69.7c-.07.07-.11.17-.11.27s.04.2.11.27.17.11.27.11.19-.04.27-.11l.69-.7c.07-.07.11-.17.11-.27s-.04-.2-.11-.27-.17-.11-.27-.11-.19.04-.27.11h0Z"/>
          </g>
        </g>
        <g>
          <g>
            <path class="cls-6" d="M141.58,74.81c-1.71-.17-3.57-.17-5.46.15v14.67c.92.44,2.02.83,3.34,1.09.72.14,1.43.22,2.12.26v-16.16Z"/>
            <path class="cls-6" d="M129.64,77.74c-2.6,3.01.57,7.51,3.33,9.81.31.25.69.57,1.17.91v-13.07c-1.41.37-3.34,1.01-4.5,2.35Z"/>
            <path class="cls-6" d="M163.89,74.89c-1.9-.28-3.76-.25-5.46-.05v16.13c.8-.02,1.64-.11,2.5-.27,1.15-.22,2.13-.55,2.97-.92v-14.9Z"/>
            <path class="cls-6" d="M149.01,76.7c-1.16-.48-3.1-1.18-5.46-1.61v15.86c2.39-.16,4.35-.78,5.46-1.22v-13.03Z"/>
            <path class="cls-6" d="M150.99,89.58c.95.4,2.95,1.12,5.46,1.34v-15.76c-2.47.49-4.44,1.25-5.46,1.7v12.72Z"/>
            <path class="cls-6" d="M165.86,75.29v13.43c.66-.44,1.16-.86,1.55-1.17,2.76-2.29,5.93-6.8,3.33-9.81-1.27-1.46-3.46-2.1-4.88-2.45Z"/>
          </g>
          <path class="cls-3" d="M117.3,32.67c.53.57.98,1.01,1.29,1.31,2.39-.34,7.12-1.52,11-5.56,2.75-2.87,4.02-6.07,4.61-8.34-.52-.07-1.04-.16-1.56-.25-1.37-.26-2.72-.6-4.05-1.03-2.49-.81-4.88-1.92-7.09-3.31-3.11-1.95-5.83-4.39-8.09-7.27-1.3,1.93-2.17,4-2.6,6.18-1.31,6.6,1.82,12.4,4.61,16.04.67.88,1.33,1.64,1.89,2.24Z"/>
          <path class="cls-3" d="M181.79,33.97c.32-.3.77-.74,1.29-1.31.56-.61,1.22-1.36,1.89-2.24,2.78-3.64,5.92-9.44,4.61-16.04-.43-2.17-1.31-4.24-2.6-6.18-2.27,2.88-4.98,5.32-8.09,7.27-2.21,1.39-4.6,2.5-7.09,3.31-1.32.43-2.67.78-4.05,1.03-.52.1-1.04.18-1.56.25.58,2.27,1.85,5.47,4.61,8.34,3.88,4.04,8.61,5.22,11,5.56Z"/>
          <path class="cls-5" d="M184.9,35.04c-.91.95-1.55,1.51-1.65,1.61l-.48.41-.63-.07c-2.98-.31-8.7-1.57-13.47-6.53-4-4.17-5.3-8.95-5.72-11.43l-.24-1.46c-3.96-1.45-8.16-2.26-12.5-2.26s-8.54.81-12.5,2.26l-.24,1.46c-.42,2.48-1.71,7.26-5.72,11.43-4.77,4.96-10.48,6.22-13.47,6.53l-.63.07-.48-.41c-.11-.09-.75-.65-1.65-1.61-6.12,8.47-9.78,18.52-9.78,27.75,0,21.21,19.95,38.47,44.48,38.47s44.48-17.26,44.48-38.47c0-9.23-3.66-19.28-9.78-27.75ZM166.03,73.78c1.49.36,4.58,1.09,6.36,3.15,1.2,1.39,1.47,2.94,1.2,4.46-.51,2.87-2.94,5.65-4.72,7.13-1.11.92-3.41,2.83-7.46,3.61-1.2.23-2.36.32-3.46.33-3.51,0-6.39-.96-7.76-1.53-1.81.74-6.19,2.17-11.22,1.2-1.98-.38-3.54-1.03-4.75-1.7h-.08v-.04c-1.23-.69-2.08-1.4-2.64-1.86-1.78-1.48-4.2-4.26-4.72-7.13-.27-1.53,0-3.08,1.2-4.46,1.79-2.06,4.88-2.8,6.36-3.15,6.71-1.6,13,.5,15.84,1.72,2.84-1.22,9.13-3.32,15.84-1.72ZM114.01,50.65c-.1-2.96.5-5.59,1.34-7.75.45-1.18.97-2.22,1.49-3.1l.14-.09c.39.6.78,1.19,1.19,1.77,1.09,1.57,2.24,3.09,3.46,4.56.39.46.79.92,1.2,1.38,1.86,2.1,3.91,4.16,6.15,5.91,2.16,1.68,4.5,3.07,7.04,3.93,1.46.5,2.99.82,4.59.92.61.04,1.24.07,1.89.06,1.68-.04,3.39-.36,4.58-1.45.1-.09.2-.19.29-.29.43-.48.72-1.08.9-1.73.3-1.06.3-2.27.08-3.31-.68-3.18-3.01-5.67-5.39-7.77-2-1.73-4.2-3.22-6.45-4.67l.39-.64c4.9,2.96,11.3,6.85,12.84,12.76.44,1.86.37,3.96-.59,5.66.66,2.59-.33,5.37-2.93,7.9-3.51,3.42-8.39,5.28-13.26,5.28-2.05,0-4.1-.33-6.05-1.01-7.31-2.57-12.62-10.11-12.9-18.32ZM173.47,68.97c-1.95.68-4,1.01-6.05,1.01-4.87,0-9.75-1.86-13.26-5.28-2.6-2.54-3.59-5.32-2.93-7.9-.96-1.69-1.03-3.8-.59-5.66,1.54-5.91,7.94-9.8,12.84-12.76l.39.64c-2.24,1.45-4.45,2.95-6.45,4.67-2.38,2.09-4.71,4.59-5.39,7.77-.22,1.04-.22,2.25.08,3.31.18.65.48,1.25.9,1.73.09.1.19.2.29.29,1.19,1.09,2.9,1.41,4.58,1.45.64.01,1.28-.01,1.89-.06,1.6-.1,3.13-.42,4.59-.92,2.54-.86,4.88-2.25,7.04-3.93,2.24-1.74,4.29-3.8,6.15-5.91.41-.46.8-.92,1.2-1.38,1.22-1.47,2.37-2.99,3.46-4.56.41-.58.8-1.17,1.19-1.77l.14.09c.51.88,1.03,1.92,1.49,3.1.84,2.17,1.44,4.79,1.34,7.75-.28,8.22-5.59,15.75-12.9,18.32Z"/>
          <path class="cls-3" d="M140.63,60.14s-.1,0-.15,0c-1.82-.04-3.57-.35-5.25-.86-.79,1.12-2.1,1.86-3.57,1.86-2.41,0-4.37-1.96-4.37-4.37,0-.5.08-.97.24-1.42-1.74-1.24-3.38-2.66-4.91-4.14.09,3.65,1.05,7.41,3.55,9.86,3.92,3.83,10.45,2.42,14.46-.93Z"/>
          <g>
            <path class="cls-7" d="M132.98,68.02c4.36,0,8.73-1.67,11.86-4.73,1.06-1.03,2.37-2.67,2.51-4.57-1.91,1.28-4.49,1.5-6.72,1.42h0c-4.02,3.35-10.54,4.76-14.46.93-2.51-2.45-3.46-6.21-3.55-9.86-1.11-1.07-2.17-2.18-3.18-3.29-.92-1.02-1.8-2.08-2.66-3.15-.53,1.7-.88,3.66-.8,5.82.26,7.42,5.02,14.22,11.58,16.53,1.74.61,3.58.91,5.42.91Z"/>
            <path class="cls-7" d="M180.94,47.92c-1.01,1.11-2.07,2.22-3.18,3.29-.09,3.65-1.05,7.41-3.55,9.86-3.92,3.83-10.45,2.42-14.46-.93h0c-2.23.07-4.8-.14-6.72-1.42.15,1.9,1.45,3.54,2.51,4.57,3.14,3.06,7.5,4.73,11.86,4.73,1.84,0,3.67-.3,5.42-.91,6.56-2.31,11.33-9.1,11.58-16.53.07-2.15-.27-4.11-.8-5.82-.85,1.08-1.74,2.13-2.66,3.15Z"/>
          </g>
          <path class="cls-3" d="M174.21,61.06c2.51-2.45,3.46-6.21,3.55-9.86-1.54,1.48-3.18,2.89-4.91,4.14.15.45.24.92.24,1.42,0,2.41-1.96,4.37-4.37,4.37-1.48,0-2.78-.73-3.57-1.86-1.68.51-3.43.81-5.25.86-.05,0-.1,0-.15,0,4.02,3.35,10.54,4.76,14.46.93Z"/>
          <g>
            <path class="cls-16" d="M114.6,16.14c-.72,0-1.43-.29-1.97-.77.55,2.2,1.15,4.5,2.68,6.17-.95.02-1.91-.19-2.75-.62,1.52,2.92,4.14,5.26,7.22,6.44l-2.17.16c2,1.36,4.3,2.28,6.68,2.69-.83.21-1.61.62-2.24,1.19,1.28.29,2.61.4,3.93.3-.34.77-1.15,1.23-1.95,1.49s-1.66.37-2.42.73c-.68.33-1.26.84-1.95,1.14s-1.59.35-2.11-.2c-.2-.21-.32-.48-.48-.73-.44-.72-1.14-1.23-1.76-1.79-2.06-1.87-3.37-4.43-4.3-7.05-1.05-2.95-1.67-6.05-1.85-9.18-.06-1.11-.07-2.24.2-3.32.48-1.9,1.91-3.96,3.5-5.1.28.5-.01,1.4-.02,1.99-.01.78.05,1.55.18,2.32.1.54.92,4.15,1.59,4.15Z"/>
            <path class="cls-16" d="M185.77,16.14c.72,0,1.43-.29,1.97-.77-.55,2.2-1.15,4.5-2.68,6.17.95.02,1.91-.19,2.75-.62-1.52,2.92-4.14,5.26-7.22,6.44l2.17.16c-2,1.36-4.3,2.28-6.68,2.69.83.21,1.61.62,2.24,1.19-1.28.29-2.61.4-3.93.3.34.77,1.15,1.23,1.95,1.49s1.66.37,2.42.73c.68.33,1.26.84,1.95,1.14s1.59.35,2.11-.2c.2-.21.32-.48.48-.73.44-.72,1.14-1.23,1.76-1.79,2.06-1.87,3.37-4.43,4.3-7.05,1.05-2.95,1.67-6.05,1.85-9.18.06-1.11.07-2.24-.2-3.32-.48-1.9-1.91-3.96-3.5-5.1-.28.5.01,1.4.02,1.99.01.78-.05,1.55-.18,2.32-.1.54-.92,4.15-1.59,4.15Z"/>
          </g>
          <g>
            <path class="cls-4" d="M172.39,76.94c-1.79-2.06-4.88-2.8-6.36-3.15-6.71-1.6-13,.5-15.84,1.72-2.84-1.22-9.13-3.32-15.84-1.72-1.49.36-4.58,1.09-6.36,3.15-1.2,1.39-1.47,2.94-1.2,4.46.51,2.87,2.94,5.65,4.72,7.13.56.46,1.41,1.17,2.64,1.86v.04h.08c1.21.67,2.77,1.33,4.75,1.7,5.03.97,9.41-.46,11.22-1.2,1.38.56,4.25,1.53,7.76,1.53,1.1,0,2.26-.09,3.46-.33,4.05-.78,6.35-2.69,7.46-3.61,1.78-1.48,4.2-4.26,4.72-7.13.27-1.53,0-3.08-1.2-4.46ZM134.14,88.46c-.48-.34-.86-.66-1.17-.91-2.76-2.29-5.93-6.8-3.33-9.81,1.16-1.34,3.09-1.98,4.5-2.35v13.07ZM141.58,90.97c-.69-.04-1.39-.12-2.12-.26-1.32-.25-2.43-.65-3.34-1.08v-14.67c1.89-.32,3.75-.32,5.46-.14v16.16ZM149.01,89.73c-1.11.43-3.07,1.06-5.46,1.22v-15.86c2.37.43,4.31,1.13,5.46,1.61v13.03ZM156.45,90.92c-2.52-.22-4.51-.94-5.46-1.34v-12.72c1.03-.45,3-1.21,5.46-1.7v15.76ZM163.89,89.79c-.84.37-1.82.69-2.97.92-.86.17-1.69.25-2.5.27v-16.13c1.7-.2,3.56-.23,5.46.05v14.9ZM167.41,87.54c-.38.32-.89.74-1.55,1.17v-13.43c1.42.35,3.61.98,4.88,2.45,2.6,3.01-.57,7.51-3.33,9.81Z"/>
            <path class="cls-4" d="M149.74,51.14c-1.54-5.91-7.94-9.8-12.84-12.76l-.39.64c2.24,1.45,4.45,2.95,6.45,4.67,2.38,2.09,4.71,4.59,5.39,7.77.22,1.04.22,2.25-.08,3.31-.18.65-.48,1.25-.9,1.73-.09.1-.19.2-.29.29-1.19,1.09-2.9,1.41-4.58,1.45-.64.01-1.28-.01-1.89-.06-1.6-.1-3.13-.42-4.59-.92-2.54-.86-4.88-2.25-7.04-3.93-2.24-1.74-4.29-3.8-6.15-5.91-.41-.46-.8-.92-1.2-1.38-1.22-1.47-2.37-2.99-3.46-4.56-.41-.58-.8-1.17-1.19-1.77l-.14.09c-.51.88-1.03,1.92-1.49,3.1-.84,2.17-1.44,4.79-1.34,7.75.28,8.22,5.59,15.75,12.9,18.32,1.95.68,4,1.01,6.05,1.01,4.87,0,9.75-1.86,13.26-5.28,2.6-2.54,3.59-5.32,2.93-7.9.96-1.69,1.03-3.8.59-5.66ZM144.84,63.29c-3.14,3.06-7.5,4.73-11.86,4.73-1.84,0-3.67-.3-5.42-.91-6.56-2.31-11.33-9.1-11.58-16.53-.07-2.15.27-4.11.8-5.82.85,1.08,1.74,2.13,2.66,3.15,1.01,1.11,2.07,2.22,3.18,3.29,1.54,1.48,3.18,2.89,4.91,4.14-.15.45-.24.92-.24,1.42,0,2.41,1.96,4.37,4.37,4.37,1.48,0,2.78-.73,3.57-1.86,1.68.51,3.43.81,5.25.86.05,0,.1,0,.15,0h0c2.23.07,4.8-.14,6.72-1.42-.15,1.9-1.45,3.54-2.51,4.57Z"/>
            <path class="cls-4" d="M185.03,42.89c-.45-1.18-.97-2.22-1.49-3.1l-.14-.09c-.39.6-.78,1.19-1.19,1.77-1.09,1.57-2.24,3.09-3.46,4.56-.39.46-.79.92-1.2,1.38-1.86,2.1-3.91,4.16-6.15,5.91-2.16,1.68-4.5,3.07-7.04,3.93-1.46.5-2.99.82-4.59.92-.61.04-1.24.07-1.89.06-1.68-.04-3.39-.36-4.58-1.45-.1-.09-.2-.19-.29-.29-.43-.48-.72-1.08-.9-1.73-.3-1.06-.3-2.27-.08-3.31.68-3.18,3.01-5.67,5.39-7.77,2-1.73,4.2-3.22,6.45-4.67l-.39-.64c-4.9,2.96-11.3,6.85-12.84,12.76-.44,1.86-.37,3.96.59,5.66-.66,2.59.33,5.37,2.93,7.9,3.51,3.42,8.39,5.28,13.26,5.28,2.05,0,4.1-.33,6.05-1.01,7.31-2.57,12.62-10.11,12.9-18.32.1-2.96-.5-5.59-1.34-7.75ZM184.4,50.58c-.26,7.42-5.02,14.22-11.58,16.53-1.74.61-3.58.91-5.42.91-4.36,0-8.73-1.67-11.86-4.73-1.06-1.03-2.37-2.67-2.51-4.57,1.91,1.28,4.49,1.5,6.72,1.42h0s.1,0,.15,0c1.82-.04,3.57-.35,5.25-.86.79,1.12,2.1,1.86,3.57,1.86,2.41,0,4.37-1.96,4.37-4.37,0-.5-.08-.97-.24-1.42,1.74-1.24,3.38-2.66,4.91-4.14,1.11-1.07,2.17-2.18,3.18-3.29.92-1.02,1.8-2.08,2.66-3.15.53,1.7.88,3.66.8,5.82Z"/>
            <g>
              <path class="cls-4" d="M147.89,71.49l-.38-.91c.44-.18.72-.6.71-1.05-.02-.52-.44-.97-.98-1.05l.15-.97c1.02.16,1.78.99,1.81,1.99.03.85-.5,1.66-1.32,1.99Z"/>
              <path class="cls-4" d="M152.48,71.49c-.82-.34-1.35-1.14-1.32-1.99.03-1,.79-1.84,1.81-1.99l.15.97c-.54.08-.96.53-.98,1.05-.01.45.27.87.71,1.05l-.38.91Z"/>
            </g>
            <path class="cls-4" d="M138.84,26.93c1.72,1.29,3.75,2.07,5.76,2.83-1.31-.64-2.37-1.79-2.91-3.14,4.3,3.08,9.62,4.7,14.91,4.53-2.27.26-4.65-.77-6.02-2.6,2.78,1.05,5.8,1.47,8.75,1.2-1.28-.54-2.59-1.11-3.54-2.11,3.05,1.25,6.39,1.78,9.67,1.52-1.82-.32-3.56-1.06-5.04-2.15,2.29.49,4.57.98,6.86,1.46-.45-3.2-1.08-6.38-1.89-9.51-.23-.89-.51-1.84-1.2-2.45-.62-.55-1.47-.73-2.28-.88-4.68-.87-9.44-1.2-14.19-1.45-2.71-.14-5.48-.26-8.1.45-2.6.7-4.32,2.1-4.14,4.8.21,3.14.68,5.49,3.37,7.51Z"/>
            <path class="cls-4" d="M186.84,32.81c3.24-4.06,7.24-10.97,5.64-19.01-.65-3.24-2.12-6.28-4.37-9.02l-1.24-1.51-1.12,1.61c-2.26,3.27-5.1,5.99-8.45,8.09-3.24,2.04-6.46,3.15-9.21,3.76-5.52-2.76-11.57-4.37-17.91-4.37s-12.39,1.61-17.91,4.37c-2.74-.61-5.97-1.72-9.21-3.76-3.34-2.1-6.19-4.82-8.45-8.09l-1.12-1.61-1.24,1.51c-2.25,2.74-3.72,5.77-4.37,9.02-1.6,8.04,2.4,14.95,5.64,19.01-6.75,9.1-10.79,19.99-10.79,29.98,0,11.1,4.96,21.53,13.97,29.36,8.95,7.78,20.84,12.06,33.47,12.06s24.52-4.28,33.47-12.06c9.01-7.83,13.97-18.26,13.97-29.36,0-9.99-4.04-20.88-10.79-29.98ZM167.74,19.82c1.37-.26,2.72-.6,4.05-1.03,2.49-.81,4.88-1.92,7.09-3.31,3.11-1.95,5.83-4.39,8.09-7.27,1.3,1.93,2.17,4,2.6,6.18,1.31,6.6-1.82,12.4-4.61,16.04-.67.88-1.33,1.64-1.89,2.24-.53.57-.98,1.01-1.29,1.31-2.39-.34-7.12-1.52-11-5.56-2.75-2.86-4.02-6.07-4.61-8.34.52-.07,1.04-.16,1.56-.25ZM110.8,14.38c.43-2.17,1.31-4.24,2.6-6.18,2.27,2.88,4.98,5.32,8.09,7.27,2.21,1.39,4.6,2.5,7.09,3.31,1.32.43,2.67.78,4.05,1.03.52.1,1.04.18,1.56.25-.58,2.27-1.85,5.47-4.61,8.34-3.88,4.04-8.61,5.22-11,5.56-.32-.3-.77-.74-1.29-1.31-.56-.61-1.22-1.36-1.89-2.24-2.78-3.64-5.92-9.44-4.61-16.04ZM150.19,101.25c-24.53,0-44.48-17.26-44.48-38.47,0-9.23,3.66-19.28,9.78-27.75.91.95,1.55,1.51,1.65,1.61l.48.41.63-.07c2.98-.31,8.7-1.57,13.47-6.53,4-4.17,5.3-8.95,5.72-11.43l.24-1.46c3.96-1.45,8.16-2.26,12.5-2.26s8.54.81,12.5,2.26l.24,1.46c.42,2.48,1.71,7.26,5.72,11.43,4.77,4.96,10.48,6.22,13.47,6.53l.63.07.48-.41c.11-.09.75-.65,1.65-1.61,6.12,8.47,9.78,18.52,9.78,27.75,0,21.21-19.95,38.47-44.48,38.47Z"/>
          </g>
        </g>
      </g>
    </g>
    <g>
      <g>
        <path class="cls-6" d="M20.98,178.1c0-2.49.69-3.18,3.18-3.18h5.5c2.49,0,3.18.69,3.18,3.18v43.25c0,13.84-4.13,18.92-16.51,18.92S0,235.2,0,221.35v-2.58c.17-2.49.86-3.18,3.18-3.18h5.5c2.67,0,3.35.69,3.18,3.18v4.64c.17,3.44,1.63,4.81,4.47,4.81,3.18,0,4.64-1.38,4.64-4.81v-45.32Z"/>
        <path class="cls-6" d="M51.07,198.14c0,1.12.34,1.55,1.55,1.55h10.66c2.49,0,3.18.69,3.18,3.18v5.67c0,2.49-.69,3.18-3.01,3.18h-10.83c-1.2,0-1.55.34-1.55,1.55v12.55c0,1.12.34,1.55,1.55,1.55h11.69c2.49,0,3.18.69,3.18,3.18v5.68c0,2.49-.69,3.18-3.18,3.18h-21.93c-2.49,0-3.18-.69-3.18-3.18v-58.13c0-2.49.69-3.18,3.18-3.18h21.93c2.49,0,3.18.69,3.18,3.18v5.67c0,2.49-.69,3.18-3.18,3.18h-11.69c-1.2,0-1.55.34-1.55,1.55v9.63Z"/>
        <path class="cls-6" d="M85.55,236.23c0,2.49-.69,3.18-3.18,3.18h-5.5c-2.49,0-3.18-.69-3.18-3.18v-58.13c0-2.49.69-3.18,3.18-3.18h23.13c2.49,0,3.18.69,3.18,3.18v5.67c0,2.49-.69,3.18-3.18,3.18h-12.9c-1.2,0-1.55.34-1.55,1.55v11.18c0,1.12.34,1.55,1.55,1.55h9.29c2.49,0,3.18.69,3.18,3.18v5.68c0,2.49-.69,3.18-3.01,3.18h-9.46c-1.2,0-1.55.34-1.55,1.55v21.41Z"/>
        <path class="cls-6" d="M120.12,198.14c0,1.12.34,1.55,1.55,1.55h10.66c2.49,0,3.18.69,3.18,3.18v5.67c0,2.49-.69,3.18-3.01,3.18h-10.83c-1.2,0-1.55.34-1.55,1.55v12.55c0,1.12.34,1.55,1.55,1.55h11.69c2.49,0,3.18.69,3.18,3.18v5.68c0,2.49-.69,3.18-3.18,3.18h-21.93c-2.49,0-3.18-.69-3.18-3.18v-58.13c0-2.49.69-3.18,3.18-3.18h21.93c2.49,0,3.18.69,3.18,3.18v5.67c0,2.49-.69,3.18-3.18,3.18h-11.69c-1.2,0-1.55.34-1.55,1.55v9.63Z"/>
        <path class="cls-6" d="M153.48,234.16c0,3.53-1.72,5.25-5.24,5.25h-2.24c-3.44,0-5.25-1.72-5.25-5.25v-2.24c0-3.44,1.81-5.25,5.25-5.25h2.24c3.53,0,5.24,1.81,5.24,5.25v2.24Z"/>
        <path class="cls-6" d="M189.59,221.35c0,13.84-3.96,18.92-16.42,18.92s-16.6-5.07-16.6-18.92v-28.38c0-13.84,4.13-18.92,16.6-18.92s16.42,5.07,16.42,18.92v2.58c0,2.49-.69,3.18-3.18,3.18h-5.5c-2.49,0-3.18-.69-3.18-3.18v-4.64c0-3.44-1.46-4.82-4.47-4.82s-4.47,1.38-4.47,4.82v32.5c0,3.44,1.46,4.81,4.47,4.81s4.47-1.38,4.47-4.81v-4.64c0-2.49.69-3.18,3.18-3.18h5.5c2.49,0,3.18.69,3.18,3.18v2.58Z"/>
        <path class="cls-6" d="M216.16,213.01c0-1.2-.34-1.55-1.55-1.55h-7.05c-1.2,0-1.55.34-1.55,1.55v23.22c0,2.49-.69,3.18-3.18,3.18h-5.5c-2.49,0-3.18-.69-3.18-3.18v-58.13c0-2.49.69-3.18,3.18-3.18h5.5c2.49,0,3.18.69,3.18,3.18v19.78c0,1.12.34,1.55,1.55,1.55h7.05c1.2,0,1.55-.43,1.55-1.55v-19.78c0-2.49.69-3.18,3.18-3.18h5.5c2.49,0,3.18.69,3.18,3.18v58.13c0,2.49-.69,3.18-3.18,3.18h-5.5c-2.49,0-3.18-.69-3.18-3.18v-23.22Z"/>
        <path class="cls-6" d="M256.66,174.92c3.87,0,5.07,1.29,5.5,4.47l7.57,56.84c.34,2.49-.34,3.18-2.84,3.18h-5.93c-2.58,0-3.18-.6-3.53-3.18l-1.12-9.37c-.09-.86-.34-1.12-1.38-1.12h-7.4c-1.03,0-1.29.26-1.38,1.12l-1.12,9.37c-.34,2.58-.95,3.18-3.53,3.18h-5.93c-2.49,0-3.18-.69-2.84-3.18l7.57-56.84c.43-3.18,1.63-4.47,5.5-4.47h10.83ZM251.24,191.26c-.95,0-1.46.17-1.55,1.2l-1.98,20.04c-.09,1.03.17,1.29,1.29,1.29h4.47c1.12,0,1.38-.26,1.29-1.29l-1.98-20.04c-.09-1.03-.6-1.2-1.55-1.2Z"/>
        <path class="cls-6" d="M291.49,186.96c-1.2,0-1.55.34-1.55,1.55v47.72c0,2.49-.69,3.18-3.18,3.18h-5.5c-2.49,0-3.18-.69-3.18-3.18v-47.72c0-1.2-.34-1.55-1.55-1.55h-5.33c-2.49,0-3.18-.69-3.18-3.18v-5.67c0-2.49.69-3.18,3.18-3.18h25.63c2.49,0,3.18.69,3.18,3.18v5.67c0,2.49-.69,3.18-3.18,3.18h-5.33Z"/>
      </g>
      <g>
        <g>
          <path class="cls-6" d="M94.39,185.8c-2.02-1.35-3.61-3-5.14-4.59-.54-.56-1.09-1.14-1.68-1.71l-.21-.21c-.09.29-.24.6-.46.92-.36.51-.7,1.13-1.06,1.79-1.13,2.09-2.54,4.69-5.4,4.9-.38.03-.77,0-1.17-.06l-.1-.02-.1-.03c-.94-.26-1.89-.59-2.8-.92-1.88-.67-3.83-1.36-5.67-1.34-1.78.08-2.9-1.6-2.98-2.81l-.05-.7.37-.59c.94-1.52,2.07-2.75,3.16-3.94,1.66-1.8,3.09-3.35,3.41-5.51.27-1.55.49-3.25-.17-4.43-1.58-2.75-3.05-5.81-4.26-8.84-.39-.83-.78-1.62-1.15-2.4-.95-1.95-1.84-3.79-2.71-5.91l-.06-.14-.04-.15c-.38-1.5.11-3.16,1.41-4.78l.08-.1.1-.09c.49-.48.98-.98,1.47-1.48,2.65-2.71,5.65-5.79,10.03-6.45l2.31-.35.31,4.15-1.04.7c-1.27.86-2.05,1.73-2.26,2.54,0,.15.08.5.15.77.1.41.22.88.26,1.42.01.15.2.48.36.77.06.1.11.2.17.31.01-.02.09-.14.09-.14l.07-.08c2.91-3.68,5.37-6.2,7.96-8.16l.8-.61.98.22c.43.1.88.19,1.33.28,2.15.42,4.58.9,6.41,2.52.54.45.82,1.04,1,1.64.49-.51.96-1.07,1.44-1.66.93-1.12,1.88-2.27,3.13-3.25l.15-.12.17-.09c.64-.34,1.34-.46,1.81-.49s1.19-.02,1.84.25c.99.35,1.94.73,2.85,1.09,2.18.86,4.23,1.67,6.54,2.06l.23.05c2.12.45,3.29,1.45,3.48,2.99.47,2.43-1.24,3.9-2.26,4.78-.3.26-.81.7-.89.89l-.02.13-.02.08c-.97,3.88-.4,8.04.15,12.06.12.89.24,1.78.35,2.66.11.77.15,1.57.19,2.34.08,1.56.14,2.92.81,3.92.4.49.9.91,1.48,1.4.69.58,1.48,1.25,2.24,2.16l.44.53.18,2.39-.52.66c-.44.55-.87,1.11-1.3,1.67-1.37,1.78-2.79,3.62-4.46,5.24l-1.36,1.33-1.49-1.19c-.7-.55-1.45-1.07-2.25-1.62-1.58-1.09-3.22-2.2-4.65-3.77l-.44.03-.64-1.44c-.54-1.26.28-2.55.87-3.27.08-.56-.02-1.2-.15-1.97-.12-.75-.26-1.6-.22-2.52-.06-1.56-.28-3.11-.51-4.75-.43-3.01-.87-6.13-.3-9.47.33-1.71,1.52-2.92,2.58-3.99.2-.2.46-.47.69-.72l-.15-.11c-.62-.46-1.35-.51-2.58-.57-.54-.03-1.15-.05-1.79-.14l-.4-.06-.32-.18c-.25,3.55.13,7,.53,10.63.18,1.62.36,3.29.49,4.97v.12c.02.92.03,1.85.04,2.79.02,3.29.04,6.7.66,10.05.07.19.15.37.22.54.26.59.58,1.33.65,2.34.12,1.56-1.18,2.99-2.83,3.11-.32.02-.64,0-.95-.08l-.5-.12-.39-.33c-.33-.28-.57-.61-.77-.92-.51.43-1,.94-1.51,1.46-.51.53-1.04,1.08-1.62,1.58l-1.24,1.07-1.37-.91ZM81.59,173.4c.57.14,1.21.3,1.86.61l.21.1.18.14c.18.14.49.32.8.49.73.41,1.57.89,2.16,1.63h0s.71-.83.71-.83c.59-.68,1.47-1.7,1.44-2.14l-.1-2.22c-.3-7.06-.58-13.72-2.3-20.56-.13-.46-1.14-.52-1.66-.48-.33.02-.67.09-.97.19-.86.55-1.22,1.09-1.27,1.28.33,1.15.85,2.31,1.41,3.55,1.34,3,2.87,6.39,1.78,10.31-.5,2.39-1.96,4.25-3.25,5.89-.26.32-.51.65-.76.98l-.22.31c-.13.18-.3.42-.44.64.15.04.31.08.44.11Z"/>
          <path class="cls-6" d="M116.31,171.16c1.08,1.36,2.52,2.12,3.79,3.65l.06.86c-1.85,2.33-3.52,4.71-5.57,6.71-2.39-1.9-5.27-3.31-7.31-5.93-.17.01.33-.95.82-1.39.61-1.89-.27-3.68-.18-5.53-.17-4.67-1.65-9.12-.85-13.86.5-2.58,5.56-4.57,3.18-6.99l-.92.07c-1.65-1.21-3.47-.84-5.34-1.11-.54-.31-.9-.45-1.44-.7-.76-.12-1.3.38-1.61.93-.71,6,.45,11.64.88,17.44.09,4.33-.1,8.79.75,13.35.3.9.75,1.5.82,2.48.03.46-.57.91-1.1.77-.74-.64-.88-2.48-2.16-1.92-1.83,1-3.09,2.77-4.56,4.03-2.49-1.66-4.27-3.84-6.51-6.05l-.06-.86c1.06-1.23,2.19-2.47,2.09-3.85-.35-7.83-.5-15.39-2.46-23.16-.63-2.26-3.65-2.5-5.67-1.72-1.55.92-2.77,2.34-2.44,3.7,1.18,4.25,4.53,8.22,3.2,12.88-.46,2.34-2.18,4.15-3.65,6.1-.68.97-1.69,2.15-1.2,3.32.77,1.1,2.38.98,3.64,1.58,1.16.9,3.58,1.58,2.59,3.04-1.57,2.2-2.66,6.2-5.47,5.72-2.83-.77-5.89-2.4-9.12-2.33-.46.03-.74-.64-.75-.81,2.27-3.69,6.21-5.83,6.87-10.27.32-1.87.57-4.03-.43-5.8-1.59-2.77-3.03-5.78-4.16-8.65-1.37-2.9-2.65-5.35-3.84-8.27-.24-.96.31-2.04,1-2.9,3.02-2.94,5.92-6.67,10.32-7.34l.04.57c-1.54,1.04-2.83,2.35-3.18,3.93-.16.94.31,1.83.38,2.74.08,1.03.82,1.79,1.12,2.69.87,1.61,2.64.56,3.42-.66,2.38-3.01,4.78-5.67,7.57-7.78,2.29.52,5.08.78,6.81,2.33.8.63.31,4.19,2.08,3.08,2.48-1.57,3.89-4.45,6.24-6.29.5-.27,1.42-.34,1.84-.14,3.38,1.2,6.26,2.66,9.83,3.26.59.13,1.87.32,1.94,1.24.51,2.27-2.9,2.99-3.15,5.03-1.29,5.18-.15,10.47.45,15.51.35,2.46-.08,5.15,1.4,7.29ZM99.03,149.03c-.03-.46-.79-.58-1.18-.37-.5.33-.46.78-.62.97-.27,2.62-.03,5.09.34,7.72.6,4.98.22,10.09,1.51,15.08.07.92.18,2.47,1.38,2.21.44-.26.36-1.41.29-2.33-.4-7.77-.97-15.47-1.71-23.27Z"/>
          <path class="cls-6" d="M129.73,182.28c-.81.06-1.55-.13-2-.24l-.35-.09-.36-.21c-.52-.34-1.21-.47-2.01-.63-1.5-.29-3.56-.7-4.91-2.86-.86-1.43-.16-2.79.21-3.52.09-.18.24-.46.26-.57.19-1.79,0-3.62-.19-5.56-.15-1.49-.31-3.04-.3-4.65-.04-2.04-.2-3.51-.91-4.78-.89-1.3-.44-3.04.26-3.86l.15-.18.19-.14c1.64-1.23,3.2-2.52,4.7-3.76s3.06-2.54,4.68-3.75l1.09-.81,1.2.63c3.52,1.83,6.6,2.71,9.42,2.68h.32s.31.09.31.09c1.69.5,2.71,2.05,2.42,3.7l-.02.11c-.17.76-.55,1.34-.82,1.77-.07.1-.15.24-.19.31-.31,1.29-.2,2.6-.06,4.11.03.36.06.73.09,1.1v.12c.07,3.22.5,6.29,1.28,9.13v.03c.11.08.24.17.34.24.43.3.97.67,1.41,1.24l.4.52v.2c.44.82.49,1.59.19,2.33l-.07.17-.24.38c-1.39,2.22-2.97,4.75-5.3,5.69l-.08.03c-.24.09-.5.14-.75.16-1.59.12-2.62-1.04-3.38-1.88-.21-.23-.54-.6-.72-.73-.25-.09-.47-.14-.66-.14-.5.36-1,.77-1.52,1.21-.77.64-1.57,1.31-2.49,1.9l-.06.04-.06.03c-.44.24-.94.39-1.48.43ZM130.05,158.47c.43,1.77.45,3.52.46,5.21.01,1.41.03,2.74.27,3.95l.03.13v.13c.04.43.05.84.06,1.25.01.64.02,1.2.14,1.69.22.95,1.76,1.06,2.49,1.06.04-4.36.04-8.52-.55-12.77-.59-.11-1.12-.24-1.6-.37-.48-.13-.91-.23-1.31-.29Z"/>
          <path class="cls-6" d="M144.25,173.26c.01.17.44.54.3.9-1.29,2.06-2.68,4.36-4.42,5.06-1.01.36-1.98-1.76-3.18-2.37-.83-.34-1.65-.46-2.44-.22-1.49.98-2.77,2.34-4.32,3.32-.61.33-1.44.11-1.97-.03-2.13-1.4-4.83-.51-6.27-2.83-.4-.66.69-1.67.78-2.71.38-3.49-.51-6.89-.48-10.42-.04-2.13-.19-4.14-1.25-5.97-.32-.38-.08-1.09.08-1.28,3.34-2.5,6.21-5.14,9.38-7.51,3.3,1.72,6.86,2.96,10.44,2.93.47.14,1.02.56.9,1.26-.18.76-.88,1.39-1.01,2.04-.49,2-.18,3.88-.03,5.89.06,3.23.48,6.49,1.35,9.66.08,1.09,1.49,1.45,2.13,2.27ZM134.98,158c-.26-.39-.87-.8-1.28-.95-1.87-.27-3.25-1.03-5.08-.72-.79.29-1.13,1.18-.83,2.03.98,3.05.25,6.51.89,9.7.08,1.15-.01,2.2.24,3.27.59,2.56,3.68,2.96,5.8,2.63.38-.32.98-.77.95-1.22.04-4.91.09-9.77-.68-14.74Z"/>
          <path class="cls-6" d="M152.65,180.84c-2.8-1.09-5.67-2.36-7.48-4.94-1.28-1.54-.4-3.28-.02-4.04.07-.13.16-.31.2-.43l.08-1.12c.29-3.93.56-7.64.04-11.37v-.07s-.02-.07-.02-.07c-.06-.81-.1-1.6-.14-2.38-.13-2.49-.26-4.83-.92-7.22l-.03-.12-.02-.13c-.3-1.96-.58-4.54-.04-7.12l.04-.2.08-.19c.83-2.03,2.57-3.2,4.11-4.23.84-.56,1.63-1.09,2.2-1.7.75-.95,1.79-1.51,2.93-1.59.27-.02.55-.01.83.02l.65.08.45.39c1.52,1.03,1.52,2.46,1.06,3.42-.24.54-.51,1.01-.76,1.43-.26.45-.51.87-.58,1.16-.54,3.53-.29,6.94-.02,10.54.1,1.4.1,2.74.1,4.05,0,2.4-.01,4.66.65,6.86l.07.23.02.24c.07.9-.08,1.59-.25,2.16.13,1.81.27,3.41.67,5.1.17.09.47.21.68.3.59.24,1.32.53,1.95,1.08l.27.23.15.25.06.06c1.21,1.35.84,2.6.51,3.22-.83,1.66-2.13,2.76-3.28,3.73-.67.57-1.3,1.1-1.75,1.68l-.99,1.27-1.5-.58Z"/>
          <path class="cls-6" d="M153.43,178.82c-2.38-.92-5.06-2.05-6.55-4.25-.75-.81.71-2.07.64-3.11.31-4.36.7-8.54.1-12.83-.25-3.45-.2-6.63-1.14-10.03-.33-2.17-.49-4.3-.06-6.35.98-2.38,4.09-3.3,5.96-5.35.37-.49.97-.94,1.84-.83.25.21.72.35.47.83-.49,1.13-1.29,2.06-1.5,3.11-.59,3.8-.32,7.42-.05,11.09.29,3.91-.31,7.59.84,11.38.05.69-.09,1.16-.28,1.75.16,2.18.3,4.14.87,6.29.55,1.23,2.29,1.28,3.21,2.07.26.44.74.64.49,1.12-1.11,2.22-3.4,3.25-4.82,5.09Z"/>
          <path class="cls-6" d="M169.53,179.09c-1.08-.48-2.21-.89-3.4-1.32-2.42-.87-4.91-1.77-7.26-3.37l-.1-.07-.09-.08c-.68-.58-.87-1.4-.91-1.98-.04-.59.03-1.42.61-2.1.47-.55.62-.94.61-1.11v-.08s0-.08,0-.08c-.01-3.2-.26-6.53-.71-9.63v-.08s-.02-.08-.02-.08c-.02-.3-.1-.71-.17-1.13-.32-1.72-.84-4.6,1.7-6.12,1.25-.74,2.3-1.72,3-2.78-.06-.08-.12-.17-.16-.24-.41-.58-.92-1.3-1.11-2.22-1.61-7.6,5.55-11.9,10.28-14.75l1.21-.73.95.32c3.74,1.26,5.58,4.88,6.36,6.95,1.37,3.31,1.26,7.13.69,9.83.28.41.56.89.74,1.4,1,3.04.95,5.92.89,8.7-.01.7-.03,1.41-.02,2.12.02.36,0,.7-.01,1.04-.01.29-.03.57-.02.85.13.5.25,1,.38,1.48.45,1.73.87,3.37,1.14,5.1v.08s.02.08.02.08c.04.58-.06,2.02-1.96,3l-.14.07-.15.05c-.5.17-1.01.49-1.36.84-2.55,3.06-5.98,4.65-9.27,6.03l-.86.36-.85-.38ZM170.4,167.21c.21.11.72.26,1.07.36.17.05.34.1.53.16-.05-.46-.1-.94-.16-1.42-.05-.39-.1-.78-.14-1.17-.17-1.31-.13-2.64-.09-3.92.06-1.89.11-3.67-.58-5.02-.43-.78-1.22-1.59-2.08-2.07.04.9.07,1.79.09,2.67.1,3.65.2,7.11,1.36,10.42ZM171.86,141.93c.85,1.04,2.55,1.91,4.22,2.75-.29-1.51-.96-3.19-1.88-4.56-.96-1.42-1.71-1.8-1.91-1.83-.36.15-.58.39-.73.79-.28.78-.15,1.98.3,2.86Z"/>
          <path class="cls-6" d="M180.43,162.68c.58,2.33,1.19,4.42,1.52,6.59.03.4-.41.72-.8.93-.85.29-1.67.82-2.26,1.44-2.23,2.71-5.3,4.14-8.49,5.48-3.34-1.49-7.1-2.31-10.32-4.5-.19-.16-.24-.85-.08-1.03.8-.93,1.19-1.82,1.13-2.68-.01-3.29-.26-6.74-.73-9.94-.13-1.72-1.18-4.25.48-5.23,1.66-.99,3.12-2.37,4.04-3.99.79-1.1-1.04-2.29-1.3-3.54-1.33-6.26,5.05-9.9,9.64-12.67,2.67.9,4.25,3.56,5.04,5.69,1.33,3.19,1.05,7.14.35,9.51.26.33.83,1.04,1.05,1.66,1.12,3.38.72,6.7.75,10.17.04.57-.08,1.28-.02,2.14ZM172.95,155.21c-1-1.83-3.35-3.86-5.76-3.68-.4.03-.34.89-.5,1.08.38,5.17-.1,10.41,1.72,15.47.57,1.52,2.7,1.36,4.33,2.28.65.24,1.53.35,1.48-.28.1-1.74-.2-3.45-.38-5.17-.41-3.26.6-6.8-.89-9.7ZM171.56,136.25c-2.81,1.07-2.71,4.76-1.52,6.87,1.73,2.3,5.51,3.46,8.06,5.13,1.52-4.5-3.12-13.29-6.54-12Z"/>
          <path class="cls-6" d="M189.47,177.43c-2.53-1.01-4.59-2.63-6.59-4.19l-.75-.59-.18-2.47.57-1c.33-.56.5-.87.58-1.19.14-2.22.07-4.37,0-6.45-.03-.84-.05-1.68-.07-2.51-.13-1.82-.27-3.54-.9-4.9-.05-.03-.1-.05-.15-.08-.53-.3-1.76-.99-1.87-2.54v-.07s0-.07,0-.07c-.03-3.68,3.28-5.44,5.26-6.5l.61-.33.14-.05c.38-.14.78-.23,1.18-.26,2.22-.16,4.11,1.44,5.18,3.04,1.06,1.37.59,2.83.36,3.54-.05.16-.13.41-.14.5.07.94-.04,1.88-.14,2.72-.03.28-.07.55-.09.82-.13,1.23.03,2.45.22,3.86.11.8.22,1.62.28,2.51v.13s0,.13,0,.13c-.07,1.45.19,3.22.74,5.03.12.14.4.35.63.52.37.27.83.61,1.26,1.07l.52.56.17,2.32-.75,1.2c-1.05,1.7-2.14,3.46-3.85,4.92l-.99.85-1.21-.48ZM182.8,145.94c-.88.06-1.73-.38-2.28-1.2l-.91-1.35,1.05-1.25c.54-.64,1.03-1.33,1.55-2.07,1.35-1.89,2.74-3.85,5.04-5.12.09-.05.21-.13.34-.2.71-.43,1.67-1.02,2.78-1.1,1.22-.09,2.31.46,2.99,1.5l.77,1.2-.8,1.18c-1.67,2.46-4.02,4.05-6.1,5.44l-.56.38c-.21.15-.43.3-.65.45-.73.49-1.21.82-1.65,1.34-.4.47-.96.75-1.57.79Z"/>
          <path class="cls-6" d="M185.24,168.28c.22-3.31,0-6.35-.05-9.35-.16-2.18-.32-4.31-1.32-6.14-.51-.66-1.56-.75-1.61-1.44-.02-2.6,2.78-3.84,4.61-4.85,1.52-.57,3.06.81,3.85,2.03.7.82-.27,1.75-.19,2.9.08,1.03-.13,2.15-.23,3.19-.24,2.21.32,4.31.49,6.72-.09,1.91.3,4.08.9,6,.48,1,1.55,1.39,2.3,2.2l.06.86c-1.14,1.82-2.16,3.62-3.79,5.02-2.2-.88-4.04-2.3-6.06-3.89l-.06-.86c.51-.9.93-1.51,1.09-2.39ZM182.32,143.54c1.97-2.34,3.31-5.21,5.98-6.68.94-.53,2.47-1.74,3.25-.53-1.56,2.31-3.88,3.75-6.08,5.24-1.1.77-1.93,1.24-2.73,2.16-.16.19-.42-.2-.42-.2Z"/>
          <path class="cls-6" d="M204.35,177.99c-1.09.08-2.13-.32-2.82-.62l-.13-.06-.12-.07c-.9-.55-1.92-.85-3.01-1.17-1.11-.33-2.25-.67-3.42-1.29l-1.31-.69.17-1.47c.16-1.34.92-2.28,1.48-2.97.31-.38.6-.74.63-.96,0-.55,0-1.12.01-1.7.02-1.8.04-3.66-.09-5.38-.07-.92-.09-1.83-.11-2.7-.03-1.48-.06-2.89-.31-4.22-.04,0-.08,0-.12,0-1.29.09-2.93-1.01-3.04-2.52v-.15s0-.15,0-.15c.12-1.7,1.06-2.89,1.75-3.76.33-.41.67-.84.75-1.13-.03-.27-.07-.56-.12-.85-.13-.86-.28-1.84-.13-2.96.05-.72.38-1.56.86-2.11l.08-.09.09-.09c.86-.78,1.72-1.46,2.56-2.12.98-.77,1.9-1.5,2.7-2.3l.15-.15.18-.12c.33-.22,1-.6,1.82-.66,1-.07,1.91.36,2.45,1.15,1.09,1.6.76,3.14.54,4.16-.08.38-.15.73-.13.94.11.49.17.98.22,1.45.03.32.07.64.12.92.15-.02.3-.03.46-.04.33-.02.64-.03.93,0,1.63.03,2.74,1.61,2.83,2.81l.02.32-.07.32c-.05.2.04.82.08,1.19.15,1.18.47,3.6-1.62,4.74-.77.49-1.58.63-2.24.7-.14,1.78-.04,3.53.05,5.37.05.95.1,1.9.12,2.88.09,1.27.21,2.7.76,3.81l.04.09.04.09c.07.17.53.42.99.66.37.2.79.42,1.21.71l.5.34.25.55c.02.05.05.1.08.15.24.46.88,1.68.14,3.07-.95,1.88-2.19,3.44-4.15,5.19-.57.53-1.3.85-2.12.91Z"/>
          <path class="cls-6" d="M196.84,147.03c-.09-1.26-.46-2.39-.27-3.68-.01-.17.13-.64.34-.89,1.79-1.63,3.72-2.87,5.33-4.49.39-.26,1-.48,1.26-.09.97,1.43-.2,2.79.09,4.33.25,1.02.17,2.36.66,3.42.38,1.3,1.77.51,3.11.64.4-.03.74.58.75.81-.35,1.53.86,3.86-.53,4.54-1.1.77-3.06.05-3.19,1.39-.4,3.21,0,6.24.07,9.53.11,1.44.23,3.16.98,4.66.5,1.29,1.85,1.6,3.01,2.38.21.45.52.83.27,1.31-.91,1.8-2.08,3.16-3.7,4.6-.65.63-1.71.3-2.61-.1-2.12-1.29-4.44-1.41-6.54-2.52.18-1.51,2.02-2.34,2.13-4.08,0-2.31.1-4.92-.08-7.33-.19-2.59.02-5.2-.57-7.76-.08-1.03-1.25-1.24-2.28-1.16-.23.02-.72-.35-.73-.52.14-2.03,2.37-3.06,2.52-4.98Z"/>
          <path class="cls-6" d="M222.67,176.42c-.76.06-1.58-.09-2.37-.41l-.1-.05c-1.09-.52-2.26-.86-3.5-1.23-2.07-.61-4.22-1.24-6.18-2.74-.76-.46-1.86-1.61-.78-4.04.06-.13.13-.29.17-.4.25-1.68.11-3.28-.04-4.98-.04-.41-.07-.83-.1-1.24-.33-2.37-.46-4.85-.58-7.25-.06-1.17-.12-2.32-.2-3.45-.06-.83.28-1.56.52-2.09.04-.1.09-.19.12-.27l.17-.46.37-.39c2.29-2.22,4.76-3.71,7.15-5.16l.55-.33c.4-.22.83-.35,1.29-.39,1.09-.08,2.01.4,2.75.79.28.15.57.3.77.37.76.23,1.67.37,2.63.53,2,.32,4.27.69,6.34,2.13l.85.59.04.54c.55,1.06.29,1.95.07,2.42l-.04.08c-1.11,2.11-.69,4.46-.25,6.95l.08.46v.11c.05.55.06,1.1.06,1.62.01.97.02,1.89.24,2.79l.03.14c.09.51.28,1.08.48,1.68.39,1.16.83,2.47.8,4.01l-.02,1.05-.84.63c-2.25,1.71-4.24,3.45-6.36,5.29-.76.66-1.54,1.34-2.35,2.04l-.31.26-.38.13c-.34.12-.71.2-1.09.23ZM220.34,164c.61.26,1.18.51,1.74.76.32.15.64.29.96.43-.01-3.2-.58-6.38-1.18-9.72-.11-.62-.22-1.25-.33-1.87-.46-.15-1.48-.19-2.05-.22-.01,0-.03,0-.04,0,.02,1.51.26,3,.51,4.55.09.58.19,1.15.27,1.73.13.82.1,1.67.07,2.49-.02.57-.05,1.49.06,1.84Z"/>
          <path class="cls-6" d="M221.12,174.01c-3.17-1.5-6.65-1.65-9.41-3.81-.72-.35.08-1.28.3-2.16.4-2.45.06-4.63-.1-6.92-.48-3.43-.53-7.18-.78-10.63-.03-.4.38-1.07.53-1.48,2.27-2.19,4.76-3.64,7.25-5.15.83-.47,1.95.55,3.07.93,2.78.84,5.88.61,8.44,2.38.01.17.44.43.24.85-1.52,2.88-.89,5.9-.4,8.69.11,1.49-.06,3.07.35,4.77.3,1.71,1.29,3.37,1.26,5.28-3.12,2.37-5.72,4.75-8.81,7.41-.62.22-1.32.1-1.92-.15ZM219.38,165.94c1.79.73,3.17,1.5,4.95,2.06.23-.02.84-.35.81-.75.34-4.82-.7-9.48-1.51-14.21-.33-2.11-3.59-1.64-5.51-1.9-.4.03-.66.45-.8.93-.2,2.79.39,5.34.76,7.92.33,2.11-.67,5.07,1.31,5.97Z"/>
        </g>
        <g>
          <path class="cls-13" d="M116.31,171.16c1.08,1.36,2.52,2.12,3.79,3.65l.06.86c-1.85,2.33-3.52,4.71-5.57,6.71-2.39-1.9-5.27-3.31-7.31-5.93-.17.01.33-.95.82-1.39.61-1.89-.27-3.68-.18-5.53-.17-4.67-1.65-9.12-.85-13.86.5-2.58,5.56-4.57,3.18-6.99l-.92.07c-1.65-1.21-3.47-.84-5.34-1.11-.54-.31-.9-.45-1.44-.7-.76-.12-1.3.38-1.61.93-.71,6,.45,11.64.88,17.44.09,4.33-.1,8.79.75,13.35.3.9.75,1.5.82,2.48.03.46-.57.91-1.1.77-.74-.64-.88-2.48-2.16-1.92-1.83,1-3.09,2.77-4.56,4.03-2.49-1.66-4.27-3.84-6.51-6.05l-.06-.86c1.06-1.23,2.19-2.47,2.09-3.85-.35-7.83-.5-15.39-2.46-23.16-.63-2.26-3.65-2.5-5.67-1.72-1.55.92-2.77,2.34-2.44,3.7,1.18,4.25,4.53,8.22,3.2,12.88-.46,2.34-2.18,4.15-3.65,6.1-.68.97-1.69,2.15-1.2,3.32.77,1.1,2.38.98,3.64,1.58,1.16.9,3.58,1.58,2.59,3.04-1.57,2.2-2.66,6.2-5.47,5.72-2.83-.77-5.89-2.4-9.12-2.33-.46.03-.74-.64-.75-.81,2.27-3.69,6.21-5.83,6.87-10.27.32-1.87.57-4.03-.43-5.8-1.59-2.77-3.03-5.78-4.16-8.65-1.37-2.9-2.65-5.35-3.84-8.27-.24-.96.31-2.04,1-2.9,3.02-2.94,5.92-6.67,10.32-7.34l.04.57c-1.54,1.04-2.83,2.35-3.18,3.93-.16.94.31,1.83.38,2.74.08,1.03.82,1.79,1.12,2.69.87,1.61,2.64.56,3.42-.66,2.38-3.01,4.78-5.67,7.57-7.78,2.29.52,5.08.78,6.81,2.33.8.63.31,4.19,2.08,3.08,2.48-1.57,3.89-4.45,6.24-6.29.5-.27,1.42-.34,1.84-.14,3.38,1.2,6.26,2.66,9.83,3.26.59.13,1.87.32,1.94,1.24.51,2.27-2.9,2.99-3.15,5.03-1.29,5.18-.15,10.47.45,15.51.35,2.46-.08,5.15,1.4,7.29ZM99.03,149.03c-.03-.46-.79-.58-1.18-.37-.5.33-.46.78-.62.97-.27,2.62-.03,5.09.34,7.72.6,4.98.22,10.09,1.51,15.08.07.92.18,2.47,1.38,2.21.44-.26.36-1.41.29-2.33-.4-7.77-.97-15.47-1.71-23.27Z"/>
          <path class="cls-17" d="M144.25,173.26c.01.17.44.54.3.9-1.29,2.06-2.68,4.36-4.42,5.06-1.01.36-1.98-1.76-3.18-2.37-.83-.34-1.65-.46-2.44-.22-1.49.98-2.77,2.34-4.32,3.32-.61.33-1.44.11-1.97-.03-2.13-1.4-4.83-.51-6.27-2.83-.4-.66.69-1.67.78-2.71.38-3.49-.51-6.89-.48-10.42-.04-2.13-.19-4.14-1.25-5.97-.32-.38-.08-1.09.08-1.28,3.34-2.5,6.21-5.14,9.38-7.51,3.3,1.72,6.86,2.96,10.44,2.93.47.14,1.02.56.9,1.26-.18.76-.88,1.39-1.01,2.04-.49,2-.18,3.88-.03,5.89.06,3.23.48,6.49,1.35,9.66.08,1.09,1.49,1.45,2.13,2.27ZM134.98,158c-.26-.39-.87-.8-1.28-.95-1.87-.27-3.25-1.03-5.08-.72-.79.29-1.13,1.18-.83,2.03.98,3.05.25,6.51.89,9.7.08,1.15-.01,2.2.24,3.27.59,2.56,3.68,2.96,5.8,2.63.38-.32.98-.77.95-1.22.04-4.91.09-9.77-.68-14.74Z"/>
          <path class="cls-15" d="M153.43,178.82c-2.38-.92-5.06-2.05-6.55-4.25-.75-.81.71-2.07.64-3.11.31-4.36.7-8.54.1-12.83-.25-3.45-.2-6.63-1.14-10.03-.33-2.17-.49-4.3-.06-6.35.98-2.38,4.09-3.3,5.96-5.35.37-.49.97-.94,1.84-.83.25.21.72.35.47.83-.49,1.13-1.29,2.06-1.5,3.11-.59,3.8-.32,7.42-.05,11.09.29,3.91-.31,7.59.84,11.38.05.69-.09,1.16-.28,1.75.16,2.18.3,4.14.87,6.29.55,1.23,2.29,1.28,3.21,2.07.26.44.74.64.49,1.12-1.11,2.22-3.4,3.25-4.82,5.09Z"/>
          <path class="cls-18" d="M180.43,162.68c.58,2.33,1.19,4.42,1.52,6.59.03.4-.41.72-.8.93-.85.29-1.67.82-2.26,1.44-2.23,2.71-5.3,4.14-8.49,5.48-3.34-1.49-7.1-2.31-10.32-4.5-.19-.16-.24-.85-.08-1.03.8-.93,1.19-1.82,1.13-2.68-.01-3.29-.26-6.74-.73-9.94-.13-1.72-1.18-4.25.48-5.23,1.66-.99,3.12-2.37,4.04-3.99.79-1.1-1.04-2.29-1.3-3.54-1.33-6.26,5.05-9.9,9.64-12.67,2.67.9,4.25,3.56,5.04,5.69,1.33,3.19,1.05,7.14.35,9.51.26.33.83,1.04,1.05,1.66,1.12,3.38.72,6.7.75,10.17.04.57-.08,1.28-.02,2.14ZM172.95,155.21c-1-1.83-3.35-3.86-5.76-3.68-.4.03-.34.89-.5,1.08.38,5.17-.1,10.41,1.72,15.47.57,1.52,2.7,1.36,4.33,2.28.65.24,1.53.35,1.48-.28.1-1.74-.2-3.45-.38-5.17-.41-3.26.6-6.8-.89-9.7ZM171.56,136.25c-2.81,1.07-2.71,4.76-1.52,6.87,1.73,2.3,5.51,3.46,8.06,5.13,1.52-4.5-3.12-13.29-6.54-12Z"/>
          <path class="cls-8" d="M185.24,168.28c.22-3.31,0-6.35-.05-9.35-.16-2.18-.32-4.31-1.32-6.14-.51-.66-1.56-.75-1.61-1.44-.02-2.6,2.78-3.84,4.61-4.85,1.52-.57,3.06.81,3.85,2.03.7.82-.27,1.75-.19,2.9.08,1.03-.13,2.15-.23,3.19-.24,2.21.32,4.31.49,6.72-.09,1.91.3,4.08.9,6,.48,1,1.55,1.39,2.3,2.2l.06.86c-1.14,1.82-2.16,3.62-3.79,5.02-2.2-.88-4.04-2.3-6.06-3.89l-.06-.86c.51-.9.93-1.51,1.09-2.39ZM182.32,143.54c1.97-2.34,3.31-5.21,5.98-6.68.94-.53,2.47-1.74,3.25-.53-1.56,2.31-3.88,3.75-6.08,5.24-1.1.77-1.93,1.24-2.73,2.16-.16.19-.42-.2-.42-.2Z"/>
          <path class="cls-1" d="M196.84,147.03c-.09-1.26-.46-2.39-.27-3.68-.01-.17.13-.64.34-.89,1.79-1.63,3.72-2.87,5.33-4.49.39-.26,1-.48,1.26-.09.97,1.43-.2,2.79.09,4.33.25,1.02.17,2.36.66,3.42.38,1.3,1.77.51,3.11.64.4-.03.74.58.75.81-.35,1.53.86,3.86-.53,4.54-1.1.77-3.06.05-3.19,1.39-.4,3.21,0,6.24.07,9.53.11,1.44.23,3.16.98,4.66.5,1.29,1.85,1.6,3.01,2.38.21.45.52.83.27,1.31-.91,1.8-2.08,3.16-3.7,4.6-.65.63-1.71.3-2.61-.1-2.12-1.29-4.44-1.41-6.54-2.52.18-1.51,2.02-2.34,2.13-4.08,0-2.31.1-4.92-.08-7.33-.19-2.59.02-5.2-.57-7.76-.08-1.03-1.25-1.24-2.28-1.16-.23.02-.72-.35-.73-.52.14-2.03,2.37-3.06,2.52-4.98Z"/>
          <path class="cls-11" d="M221.12,174.01c-3.17-1.5-6.65-1.65-9.41-3.81-.72-.35.08-1.28.3-2.16.4-2.45.06-4.63-.1-6.92-.48-3.43-.53-7.18-.78-10.63-.03-.4.38-1.07.53-1.48,2.27-2.19,4.76-3.64,7.25-5.15.83-.47,1.95.55,3.07.93,2.78.84,5.88.61,8.44,2.38.01.17.44.43.24.85-1.52,2.88-.89,5.9-.4,8.69.11,1.49-.06,3.07.35,4.77.3,1.71,1.29,3.37,1.26,5.28-3.12,2.37-5.72,4.75-8.81,7.41-.62.22-1.32.1-1.92-.15ZM219.38,165.94c1.79.73,3.17,1.5,4.95,2.06.23-.02.84-.35.81-.75.34-4.82-.7-9.48-1.51-14.21-.33-2.11-3.59-1.64-5.51-1.9-.4.03-.66.45-.8.93-.2,2.79.39,5.34.76,7.92.33,2.11-.67,5.07,1.31,5.97Z"/>
        </g>
      </g>
    </g>
  </g>
</svg>