<svg width="320" height="325" viewBox="0 0 320 325" fill="none" xmlns="http://www.w3.org/2000/svg">
<path d="M276.6 145.703C279.89 143.631 283.14 141.5 286.36 139.318C286.9 138.95 287.43 138.591 287.96 138.223C288.25 138.024 288.54 137.814 288.83 137.615C290.64 136.36 292.43 135.066 294.2 133.761C295.63 132.705 297.05 131.639 298.46 130.554C299.31 129.896 300.09 129.139 300.84 128.363C301.31 127.885 301.76 127.387 302.23 126.908C302.67 126.45 302.97 125.922 303.11 125.335C303.2 124.986 303.23 124.618 303.2 124.239C303.19 124.06 303.18 123.871 303.17 123.681C303.08 122.197 303.02 120.703 302.91 119.219C302.84 118.273 302.75 117.327 302.63 116.391C302.41 114.678 301.91 112.965 301.33 111.331C300.8 109.827 299.82 108.602 298.11 108.224C296.48 107.865 294.85 107.915 293.07 108.284C292.95 108.303 292.83 108.333 292.71 108.363C292.86 108.791 292.92 109.07 293.05 109.309C293.09 109.399 293.13 109.479 293.18 109.568C293.46 110.156 293.65 110.744 293.76 111.341C293.94 112.327 293.88 113.303 293.63 114.279C293.5 114.777 293.31 115.285 293.07 115.773C292.35 117.247 291.48 118.682 290.46 119.956C290.11 120.395 289.74 120.833 289.37 121.251C285.75 125.395 281.39 128.721 276.83 131.779C268.63 137.277 260.02 142.047 251.15 146.36C249.97 146.928 248.79 147.495 247.61 148.053C247.35 148.173 247.09 148.292 246.84 148.422C246.29 148.681 245.74 148.94 245.2 149.199C244.48 149.537 243.76 149.876 243.06 150.205C242.95 151.091 242.89 153.003 242.87 155.135C242.84 158.989 242.95 163.591 243.18 164.258C243.67 164.049 244.16 163.86 244.64 163.64C250.84 160.672 256.91 157.445 262.86 153.999C267.5 151.32 272.09 148.561 276.62 145.703H276.6Z" fill="#3E3E4B"/>
<path d="M77.59 151.38C77.59 151.38 77.59 151.32 77.59 151.3C77.57 150.414 77.16 149.995 76.38 149.657C74.75 148.96 73.14 148.233 71.54 147.476C71.16 147.296 70.77 147.117 70.39 146.928C68.2 145.862 66.02 144.776 63.87 143.651C57.46 140.324 51.2 136.729 45.14 132.795C44.29 132.247 43.46 131.689 42.63 131.121C41.01 130.006 39.42 128.841 37.89 127.616C36.03 126.132 34.24 124.558 32.55 122.855C31.36 121.65 30.22 120.385 29.24 119.02C28.7 118.263 28.2 117.467 27.76 116.63C26.98 115.126 26.56 113.622 26.67 112.108C26.74 111.162 27.01 110.206 27.53 109.25C27.53 109.25 27.53 109.23 27.54 109.23C27.55 109.21 27.56 109.19 27.58 109.17C27.61 109.11 27.65 109.05 27.68 108.991C27.76 108.851 27.77 108.672 27.84 108.363C27.84 108.333 27.85 108.303 27.86 108.274C27.58 108.254 27.3 108.234 27.03 108.204C25.24 108.054 23.54 107.915 21.84 108.373C20.96 108.612 20.2 109.11 19.81 109.937C19.23 111.162 18.62 112.397 18.29 113.702C18.21 114.03 18.14 114.349 18.07 114.678C17.45 117.686 17.38 120.763 17.25 123.841C17.22 124.438 17.29 124.986 17.44 125.494C17.64 126.152 18 126.739 18.52 127.277C18.82 127.586 19.11 127.914 19.42 128.223C19.66 128.472 19.91 128.711 20.17 128.93C21.44 129.976 22.69 131.052 23.98 132.078C24.71 132.665 25.45 133.233 26.22 133.771C40.34 143.8 54.99 153.003 70.42 160.931C70.67 161.061 70.93 161.19 71.19 161.32C73.2 162.326 75.25 163.282 77.46 164.348C77.55 163.71 77.64 163.381 77.64 163.053C77.64 159.168 77.61 155.274 77.64 151.39L77.59 151.38Z" fill="#3E3E4B"/>
<path d="M268.49 158.989C274.14 155.722 279.62 152.167 285.15 148.681C291.09 144.936 296.84 140.902 302.23 136.4C304.62 134.398 306.95 132.317 308.66 129.657C309.55 128.263 310.01 126.799 310 125.126C310 121.819 309.93 118.512 309.38 115.236C308.93 112.546 308.39 109.887 307.16 107.417C305.22 103.513 302.15 101.312 297.7 101.162C294.85 101.063 292.03 101.232 289.26 101.899C288.29 102.128 287.72 101.919 287.15 101.162C285.19 98.5528 283.18 95.9931 281.21 93.3936C279.24 90.794 277.29 88.1746 275.34 85.5651C272.54 81.8302 269.73 78.0952 266.93 74.3603C264.77 71.4819 262.69 68.5338 260.45 65.7151C259.2 64.1415 258.2 62.5778 258.48 60.4762C258.5 60.287 258.46 60.0878 258.44 59.8986C258.1 55.9545 256.51 52.6577 253.16 50.4267C250.49 48.6439 247.77 46.9209 244.96 45.3572C239.58 42.3692 233.98 39.8394 228.23 37.6682C222.3 35.4272 216.34 33.2958 210.36 31.1943C209.37 30.8457 209.12 30.2381 209 29.3915C208.6 26.4733 207.42 23.8638 205.56 21.6129C204.96 20.8858 204.3 20.2085 203.62 19.5412C202.93 14.2326 184.13 9.97977 161.03 9.97977C141.98 9.97977 125.84 11.8323 120.39 16.2644H119.89C119.55 16.6628 119.26 17.111 118.88 17.4596C116.88 19.2524 115.01 21.1348 113.6 23.4654C112.47 25.3379 111.78 27.3398 111.5 29.4712C111.39 30.3477 111.08 30.7959 110.19 31.0947C99.65 34.6503 89.2 38.445 79.21 43.3851C75.36 45.2875 71.59 47.3292 68.11 49.869C67.13 50.5861 66.19 51.3729 65.31 52.2096C64.01 53.4346 63.14 54.9485 62.69 56.6815C62.21 58.5241 61.82 60.3766 61.95 62.2989C62 62.9662 61.77 63.4841 61.36 64.0219C57.75 68.7927 54.18 73.6033 50.58 78.384C47.04 83.0851 43.49 87.7862 39.93 92.4772C37.73 95.3855 35.49 98.2639 33.31 101.192C32.77 101.919 32.22 102.108 31.33 101.919C28.65 101.351 25.94 101.013 23.19 101.142C21.27 101.242 19.42 101.511 17.72 102.517C15.71 103.702 14.3 105.395 13.32 107.457C11.99 110.246 11.29 113.224 10.95 116.281C10.81 117.536 10.69 118.791 10.56 120.056C10.52 120.395 10.52 120.773 10.01 120.723V126.271C10.25 126.61 10.61 126.928 10.71 127.307C11.18 129 12.13 130.424 13.3 131.659C14.87 133.313 16.49 134.956 18.24 136.42C24.42 141.589 31.12 146.041 37.91 150.354C43.46 153.88 49.11 157.256 54.77 160.613C61.44 164.577 68.31 168.152 75.35 171.409C76.14 171.778 76.91 172.156 77.73 172.545V178.321C77.72 217.673 77.73 257.014 77.67 296.365C77.67 299.184 78.75 301.305 80.8 303.108C82.36 304.473 84.14 305.469 85.99 306.345C89.4 307.959 92.96 309.114 96.6 310.08C102.83 311.743 109.16 312.939 115.54 313.845C119 314.343 122.43 315.06 125.96 315.05C147.69 315.03 169.42 315.04 191.15 315.03C195.54 315.03 199.9 315.03 204.26 314.223C211.94 312.799 219.64 311.504 227.11 309.174C230.79 308.018 234.43 306.724 237.7 304.612C241 302.481 242.98 299.752 242.93 295.509C242.76 281.356 242.83 267.203 242.82 253.05C242.81 231.357 242.8 209.665 242.79 187.972C242.79 182.873 242.79 177.763 242.79 172.624C243.15 172.415 243.47 172.216 243.81 172.047C245.78 171.09 247.79 170.194 249.73 169.168C256.01 165.822 262.34 162.555 268.5 158.999L268.49 158.989ZM286.85 112.437C285.94 114.249 284.76 115.853 283.4 117.317C280.01 120.992 276.05 124 271.91 126.769C263.82 132.177 255.22 136.659 246.42 140.792C245.37 141.281 244.31 141.759 243.1 142.316C243.02 141.779 242.91 141.42 242.92 141.071C243.17 134.169 243.33 127.267 243.74 120.375C244.01 115.823 244.51 111.262 245.14 106.74C246.34 98.0747 248.83 89.7383 251.86 81.5513C252.92 78.6828 254.09 75.8443 255.22 72.9958C255.41 72.5177 255.66 72.0595 255.94 71.452C266.31 85.1966 276.56 98.7818 286.84 112.417L286.85 112.437ZM190.72 18.6747C191.23 18.854 191.6 18.9436 191.92 19.113C194.73 20.6269 197.28 22.4894 199.46 24.82C201.52 27.0211 202.57 29.6604 202.56 32.6285C202.55 35.1981 202.4 37.7777 202.12 40.3374C200.67 53.5043 197.77 66.4024 194.67 79.2506C194.51 79.9079 194.31 80.5653 194.11 81.2127C194.07 81.3322 193.95 81.4318 193.78 81.6509C193.4 81.3123 193.03 81.0135 192.68 80.6947C189.93 78.2048 187.07 75.8542 183.8 74.0615C182.99 73.6232 182.13 73.2547 181.27 72.936C179.81 72.3882 178.55 72.7667 177.35 73.7627C173.86 76.661 170.33 79.4896 166.81 82.3381C166.7 82.4277 166.56 82.4676 166.13 82.6867C166.45 82.0991 166.61 81.7405 166.83 81.4218C174.71 69.3405 181.09 56.5321 185.57 42.8274C187.76 36.1144 189.33 29.2521 190.39 22.2702C190.56 21.1348 190.61 19.9695 190.73 18.6648L190.72 18.6747ZM143.4 33.8237C145.89 32.987 148.45 32.3297 151.03 31.8118C155.11 30.9851 159.25 30.7461 163.41 30.8457C168.37 30.9652 173.2 31.8417 177.95 33.2659C179.17 33.6344 179.8 34.4113 179.95 35.6662C180.11 37.0108 179.88 38.2956 179.43 39.5307C177.89 43.7337 176.47 47.9866 174.74 52.1C171.12 60.6754 166.76 68.8824 161.64 76.671C161.29 77.1988 160.92 77.7167 160.55 78.2247C160.47 78.3343 160.32 78.3841 160.14 78.5036C159.89 78.1948 159.62 77.9159 159.41 77.5972C151.79 65.9243 145.58 53.5741 141.28 40.2876C141.12 39.7797 140.97 39.2617 140.85 38.7438C140.33 36.4929 141.21 34.5408 143.39 33.8137L143.4 33.8237ZM139.01 18.4457C140.61 18.0174 142.24 17.7285 143.87 17.4297C145.36 17.1608 146.86 16.9915 148.35 16.7425C148.55 16.7126 148.7 16.4238 148.88 16.2445H172.91C173.14 16.8023 173.66 16.7724 174.14 16.862C176.58 17.3301 179.02 17.8082 181.45 18.3062C181.92 18.4058 182.39 18.5751 182.84 18.7544C183.33 18.9536 183.6 19.2922 183.58 19.8799C183.5 22.3599 183.1 24.7901 182.45 27.28C167.65 22.5391 152.94 22.0113 138.11 27.2103C138 26.9115 137.81 26.5729 137.74 26.2143C137.44 24.6905 137.13 23.1666 136.92 21.6228C136.62 19.2922 136.77 19.0333 139.01 18.4357V18.4457ZM120.47 25.4076C122.76 22.7383 125.59 20.7763 128.64 19.103C128.92 18.9536 129.25 18.9038 129.7 18.7544C132.36 42.0704 141.56 62.7869 154.22 82.4875C153.75 82.2883 153.5 82.2385 153.32 82.0891C149.91 79.3302 146.49 76.5813 143.11 73.7926C141.83 72.7368 140.48 72.4181 138.9 73.0057C136.49 73.9021 134.39 75.3164 132.38 76.8702C130.8 78.0952 129.32 79.4298 127.79 80.7246C127.43 81.0334 127.07 81.3322 126.53 81.7903C126.31 81.0633 126.13 80.5254 125.99 79.9876C123.07 68.0856 120.54 56.1138 118.74 43.9927C118.33 41.2537 118.04 38.4948 117.87 35.736C117.77 34.0527 117.9 32.3396 118.1 30.6564C118.34 28.6943 119.16 26.9414 120.47 25.4175V25.4076ZM64.56 71.3922C64.9 72.1392 65.14 72.6173 65.34 73.1053C68.73 81.2425 71.61 89.5391 73.68 98.1245C75.12 104.1 75.89 110.166 76.46 116.261C77.2 124.249 77.48 132.267 77.51 140.285C77.51 140.852 77.51 141.42 77.51 142.257C76.65 141.928 76.02 141.729 75.42 141.46C69.25 138.641 63.23 135.544 57.34 132.177C52.04 129.149 46.89 125.912 42.13 122.088C39.35 119.857 36.71 117.476 34.65 114.538C34.24 113.951 33.88 113.323 33.46 112.666C43.81 98.9312 54.1 85.2763 64.56 71.4022V71.3922ZM77.41 164.338C75.21 163.272 73.15 162.316 71.14 161.31C70.88 161.18 70.63 161.051 70.37 160.921C54.95 152.983 40.3 143.79 26.17 133.761C25.41 133.223 24.67 132.645 23.93 132.068C22.65 131.042 21.39 129.966 20.12 128.92C19.86 128.701 19.61 128.462 19.37 128.213C19.07 127.904 18.78 127.576 18.47 127.267C17.95 126.729 17.59 126.142 17.39 125.484C17.23 124.976 17.17 124.428 17.2 123.831C17.33 120.763 17.4 117.686 18.02 114.668C18.09 114.339 18.16 114.02 18.24 113.692C18.57 112.387 19.18 111.152 19.76 109.927C20.15 109.1 20.91 108.602 21.79 108.363C23.49 107.905 25.2 108.044 26.98 108.194C27.26 108.214 27.53 108.244 27.81 108.264C27.81 108.293 27.8 108.323 27.79 108.353C27.72 108.672 27.71 108.851 27.63 108.981C27.6 109.04 27.56 109.1 27.53 109.16C27.52 109.18 27.5 109.2 27.49 109.22C27.49 109.22 27.49 109.24 27.48 109.24C26.96 110.196 26.69 111.142 26.62 112.098C26.51 113.612 26.93 115.126 27.71 116.62C28.14 117.457 28.64 118.253 29.19 119.01C30.17 120.385 31.31 121.64 32.5 122.845C34.19 124.548 35.98 126.122 37.84 127.606C39.38 128.831 40.96 129.986 42.58 131.112C43.41 131.679 44.25 132.237 45.09 132.785C51.16 136.719 57.41 140.314 63.82 143.641C65.98 144.766 68.15 145.852 70.34 146.918C70.72 147.107 71.1 147.286 71.49 147.466C73.09 148.223 74.71 148.95 76.33 149.647C77.11 149.985 77.53 150.404 77.54 151.29C77.54 151.32 77.54 151.34 77.54 151.37C77.51 155.254 77.54 159.149 77.54 163.033C77.54 163.362 77.45 163.69 77.36 164.328L77.41 164.338ZM156.62 284.414C156.6 292.053 156.62 299.682 156.61 307.321C156.61 307.949 156.61 308.566 156.61 309.363C155.85 309.413 155.24 309.502 154.63 309.493C149.6 309.403 144.58 309.353 139.55 309.174C125.6 308.686 111.83 306.883 98.31 303.337C94.09 302.232 90.05 300.708 86.43 298.168C85.23 297.322 84.74 296.395 84.76 294.911C84.86 288.109 84.88 281.296 84.87 274.484C84.86 265.829 84.75 257.173 84.74 248.518C84.7 213.848 84.69 179.168 84.66 144.498C84.66 136.032 84.23 127.586 83.74 119.14C82.77 102.298 78.59 86.2523 71.98 70.7847C71.12 68.7728 70.24 66.7709 69.38 64.759C67.95 61.4324 68.9 57.8767 71.81 55.6955C74.83 53.4346 78.12 51.6319 81.47 49.9287C90.35 45.397 99.59 41.7218 109.05 38.5745C109.56 38.4052 110.07 38.2558 110.59 38.1064C110.72 38.0666 110.87 38.0865 111.24 38.0566C111.37 39.0526 111.51 39.9589 111.62 40.8653C113.4 55.6656 116.38 70.2369 120.3 84.609C120.72 86.1527 121.04 87.7364 121.57 89.2502C122.27 91.2422 124.25 92.1984 126.16 91.4713C126.86 91.2123 127.47 90.6446 128.03 90.1267C130.5 87.8459 132.89 85.4854 135.42 83.2644C136.76 82.0792 138.31 81.133 139.81 80.0573C140.38 80.4358 140.84 80.7047 141.25 81.0334C146.02 84.9078 150.77 88.8021 155.54 92.6665C156.27 93.2641 156.6 93.9214 156.6 94.9075C156.6 116.351 156.64 137.805 156.66 159.248C156.68 177.534 156.69 195.821 156.7 214.107C156.7 221.935 156.7 229.764 156.72 237.592C156.72 240.262 156.77 242.941 156.76 245.61C156.72 258.538 156.66 271.476 156.63 284.404L156.62 284.414ZM232.83 299.314C230.7 300.379 228.5 301.355 226.24 302.102C219.79 304.244 213.13 305.558 206.42 306.594C199.32 307.69 192.2 308.467 185.01 308.706C179.35 308.895 173.69 309.094 168.03 309.303C166.73 309.353 165.43 309.453 163.82 309.552V307.232C163.82 285.977 163.82 264.733 163.82 243.479C163.81 195.582 163.8 147.685 163.79 99.7878C163.79 98.0846 163.88 96.3815 163.87 94.6883C163.87 93.9413 164.12 93.3935 164.69 92.9254C169.68 88.8718 174.67 84.8082 179.64 80.7246C180.29 80.1868 180.84 80.2067 181.47 80.6848C183.17 81.9796 184.97 83.1847 186.57 84.599C188.69 86.4615 190.67 88.4833 192.68 90.4654C193.83 91.6008 195.12 92.029 196.68 91.5211C197.66 91.2024 198.37 90.555 198.79 89.6188C199.01 89.1307 199.17 88.6228 199.31 88.1049C202.76 75.3762 205.72 62.5379 207.68 49.4905C208.18 46.1241 208.53 42.7377 208.95 39.3613C208.99 39.0825 209.07 38.8036 209.17 38.3554C209.76 38.465 210.34 38.4948 210.87 38.6741C214.74 39.9988 218.65 41.2537 222.46 42.7377C230.19 45.7456 237.77 49.112 244.91 53.3649C246.41 54.2613 247.83 55.3071 249.28 56.2931C250.52 57.1397 251.11 58.3647 251.43 59.8089C251.93 62.0499 251.53 64.0817 250.57 66.1533C246.43 75.1471 243.04 84.3998 240.52 93.9812C238.78 100.585 237.79 107.317 237.12 114.09C236.28 122.616 235.89 131.161 235.85 139.717C235.75 161.698 235.64 183.67 235.6 205.651C235.55 235.312 235.55 264.972 235.6 294.642C235.6 296.933 234.68 298.397 232.84 299.323L232.83 299.314ZM244.62 163.64C244.14 163.869 243.65 164.059 243.16 164.258C242.93 163.591 242.82 158.989 242.85 155.135C242.87 152.993 242.93 151.081 243.04 150.205C243.74 149.876 244.46 149.537 245.18 149.199C245.72 148.94 246.27 148.681 246.82 148.422C247.08 148.302 247.34 148.183 247.59 148.053C248.78 147.495 249.96 146.928 251.13 146.36C260 142.047 268.61 137.277 276.81 131.779C281.37 128.721 285.73 125.395 289.35 121.251C289.72 120.823 290.09 120.395 290.44 119.956C291.46 118.682 292.34 117.237 293.05 115.773C293.29 115.275 293.48 114.777 293.61 114.279C293.87 113.313 293.92 112.327 293.74 111.341C293.63 110.754 293.44 110.156 293.16 109.568C293.12 109.479 293.08 109.399 293.03 109.309C292.9 109.06 292.84 108.782 292.69 108.363C292.81 108.333 292.93 108.313 293.05 108.284C294.83 107.915 296.45 107.865 298.09 108.224C299.8 108.602 300.78 109.827 301.31 111.331C301.89 112.975 302.39 114.678 302.61 116.391C302.73 117.327 302.82 118.273 302.89 119.219C303 120.703 303.07 122.197 303.15 123.681C303.16 123.871 303.17 124.05 303.18 124.239C303.2 124.618 303.18 124.986 303.09 125.335C302.95 125.922 302.65 126.45 302.21 126.908C301.74 127.387 301.29 127.875 300.82 128.363C300.07 129.139 299.29 129.906 298.44 130.554C297.03 131.629 295.61 132.705 294.18 133.761C292.41 135.066 290.62 136.36 288.81 137.615C288.52 137.814 288.23 138.024 287.94 138.223C287.41 138.591 286.87 138.96 286.34 139.318C283.12 141.5 279.87 143.631 276.58 145.703C272.05 148.561 267.46 151.32 262.82 153.999C256.87 157.435 250.8 160.662 244.6 163.64H244.62Z" fill="#16161E"/>
<path d="M137.73 26.2143C137.8 26.5729 137.99 26.9115 138.1 27.2103C152.93 22.0113 167.65 22.5391 182.44 27.28C183.08 24.7901 183.48 22.3599 183.57 19.8799C183.59 19.3022 183.32 18.9536 182.83 18.7544C182.38 18.5751 181.91 18.4058 181.44 18.3062C179.01 17.8082 176.57 17.3301 174.13 16.862C173.66 16.7724 173.13 16.8122 172.9 16.2445H148.87C148.69 16.4138 148.54 16.7027 148.34 16.7425C146.85 17.0015 145.35 17.1608 143.86 17.4297C142.23 17.7186 140.59 18.0174 139 18.4457C136.76 19.0432 136.6 19.2922 136.91 21.6328C137.11 23.1666 137.43 24.7004 137.73 26.2243V26.2143Z" fill="#3E3E4B"/>
<path d="M156.69 214.107C156.68 195.821 156.66 177.534 156.65 159.248C156.63 137.805 156.59 116.351 156.59 94.9075C156.59 93.9214 156.26 93.2641 155.53 92.6665C150.76 88.8021 146.01 84.9078 141.24 81.0334C140.83 80.7047 140.37 80.4358 139.8 80.0573C138.3 81.1429 136.75 82.0891 135.41 83.2644C132.89 85.4854 130.5 87.8559 128.02 90.1267C127.46 90.6446 126.85 91.2123 126.15 91.4713C124.23 92.1984 122.25 91.2422 121.56 89.2503C121.03 87.7364 120.71 86.1627 120.29 84.609C116.37 70.2269 113.38 55.6656 111.61 40.8653C111.5 39.9589 111.37 39.0526 111.23 38.0566C110.87 38.0765 110.72 38.0566 110.58 38.1064C110.06 38.2558 109.55 38.4052 109.04 38.5745C99.5801 41.7218 90.3401 45.397 81.4601 49.9288C78.1101 51.6319 74.8201 53.4446 71.8001 55.6955C68.8901 57.8668 67.9401 61.4224 69.3701 64.759C70.2301 66.7709 71.1101 68.7728 71.9701 70.7847C78.5901 86.2523 82.7601 102.298 83.7301 119.14C84.2201 127.586 84.6401 136.042 84.6501 144.498C84.6901 179.168 84.7001 213.848 84.7301 248.518C84.7301 257.173 84.8501 265.829 84.8601 274.484C84.8701 281.296 84.8601 288.099 84.7501 294.911C84.7301 296.395 85.2201 297.322 86.4201 298.168C90.0401 300.708 94.0801 302.232 98.3001 303.337C111.82 306.873 125.59 308.686 139.54 309.174C144.56 309.353 149.59 309.403 154.62 309.493C155.23 309.502 155.84 309.413 156.6 309.363C156.6 308.576 156.6 307.949 156.6 307.321C156.6 299.682 156.6 292.053 156.61 284.414C156.64 271.486 156.7 258.548 156.74 245.62C156.74 242.951 156.71 240.272 156.7 237.602C156.69 229.774 156.69 221.945 156.68 214.117L156.69 214.107Z" fill="#3E3E4B"/>
<path d="M42.14 122.078C46.9 125.903 52.05 129.139 57.35 132.167C63.24 135.534 69.26 138.621 75.43 141.45C76.03 141.719 76.66 141.918 77.52 142.247C77.52 141.41 77.52 140.842 77.52 140.275C77.49 132.257 77.21 124.239 76.47 116.251C75.9 110.156 75.13 104.08 73.69 98.1145C71.62 89.5391 68.75 81.2326 65.35 73.0954C65.15 72.6073 64.91 72.1293 64.57 71.3823C54.11 85.2563 43.82 98.9213 33.47 112.646C33.88 113.303 34.24 113.931 34.66 114.518C36.72 117.457 39.36 119.837 42.14 122.068V122.078Z" fill="#3E3E4B"/>
<path d="M255.95 71.4719C255.66 72.0795 255.42 72.5376 255.23 73.0157C254.1 75.8642 252.93 78.7028 251.87 81.5712C248.84 89.7582 246.35 98.0946 245.15 106.76C244.52 111.281 244.02 115.833 243.75 120.395C243.34 127.287 243.18 134.189 242.93 141.091C242.92 141.44 243.03 141.798 243.11 142.336C244.33 141.779 245.38 141.3 246.43 140.812C255.23 136.679 263.83 132.197 271.92 126.789C276.06 124.02 280.02 121.012 283.41 117.337C284.77 115.863 285.94 114.269 286.86 112.457C276.58 98.8217 266.33 85.2364 255.96 71.4918L255.95 71.4719Z" fill="#3E3E4B"/>
<path d="M141.28 40.2976C145.57 53.5741 151.79 65.9243 159.41 77.6072C159.62 77.9259 159.89 78.2048 160.14 78.5135C160.32 78.394 160.47 78.3442 160.55 78.2347C160.93 77.7267 161.29 77.2088 161.64 76.6809C166.76 68.8923 171.12 60.6854 174.74 52.11C176.48 47.9965 177.9 43.7437 179.43 39.5406C179.88 38.2956 180.11 37.0108 179.95 35.6762C179.8 34.4213 179.17 33.6444 177.95 33.2759C173.21 31.8417 168.38 30.9751 163.41 30.8556C159.25 30.756 155.1 30.9951 151.03 31.8217C148.46 32.3396 145.89 33.007 143.4 33.8336C141.22 34.5607 140.34 36.5128 140.86 38.7637C140.98 39.2817 141.12 39.7996 141.29 40.3075L141.28 40.2976Z" fill="#3E3E4B"/>
<path d="M185.56 42.8274C181.08 56.5421 174.7 69.3405 166.82 81.4218C166.61 81.7505 166.44 82.109 166.12 82.6867C166.55 82.4676 166.69 82.4278 166.8 82.3381C170.32 79.4896 173.86 76.651 177.34 73.7627C178.54 72.7667 179.8 72.3882 181.26 72.936C182.12 73.2547 182.98 73.6232 183.79 74.0615C187.06 75.8543 189.93 78.1948 192.67 80.6947C193.02 81.0135 193.38 81.3123 193.77 81.6509C193.94 81.4318 194.06 81.3322 194.1 81.2127C194.3 80.5653 194.51 79.9179 194.66 79.2506C197.76 66.3924 200.66 53.4944 202.11 40.3374C202.39 37.7777 202.54 35.1981 202.55 32.6285C202.56 29.6604 201.51 27.0211 199.45 24.82C197.26 22.4794 194.72 20.6269 191.91 19.113C191.59 18.9436 191.22 18.854 190.71 18.6747C190.59 19.9795 190.54 21.1348 190.37 22.2802C189.32 29.2621 187.74 36.1244 185.55 42.8373L185.56 42.8274Z" fill="#3E3E4B"/>
<path d="M117.86 35.726C118.03 38.4849 118.32 41.2537 118.73 43.9827C120.54 56.1039 123.06 68.0756 125.98 79.9776C126.11 80.5155 126.3 81.0533 126.52 81.7804C127.06 81.3222 127.42 81.0135 127.78 80.7147C129.31 79.4298 130.79 78.0853 132.37 76.8602C134.37 75.3065 136.48 73.8922 138.89 72.9958C140.47 72.4081 141.82 72.7269 143.1 73.7826C146.49 76.5714 149.9 79.3203 153.31 82.0792C153.49 82.2286 153.75 82.2784 154.21 82.4775C141.55 62.777 132.35 42.0605 129.69 18.7444C129.24 18.8839 128.91 18.9337 128.63 19.093C125.58 20.7763 122.75 22.7284 120.46 25.3976C119.15 26.9215 118.33 28.6744 118.09 30.6365C117.89 32.3197 117.75 34.0328 117.86 35.716V35.726Z" fill="#3E3E4B"/>
<path d="M235.59 205.641C235.63 183.66 235.74 161.688 235.84 139.707C235.88 131.151 236.27 122.596 237.11 114.08C237.78 107.298 238.77 100.575 240.51 93.9712C243.03 84.3998 246.43 75.1371 250.56 66.1434C251.51 64.0717 251.91 62.0399 251.42 59.799C251.1 58.3548 250.52 57.1297 249.27 56.2831C247.82 55.2971 246.41 54.2414 244.9 53.3549C237.76 49.1021 230.18 45.7356 222.45 42.7278C218.64 41.2438 214.73 39.9988 210.86 38.6642C210.33 38.4849 209.75 38.455 209.16 38.3454C209.06 38.7936 208.98 39.0725 208.94 39.3514C208.52 42.7278 208.17 46.1141 207.67 49.4806C205.72 62.528 202.76 75.3662 199.3 88.0949C199.16 88.6128 198.99 89.1208 198.78 89.6088C198.36 90.545 197.65 91.1924 196.67 91.5111C195.11 92.0191 193.82 91.5908 192.67 90.4554C190.66 88.4734 188.67 86.4515 186.56 84.589C184.96 83.1747 183.17 81.9796 181.46 80.6748C180.84 80.1967 180.29 80.1768 179.63 80.7147C174.66 84.7982 169.67 88.8618 164.68 92.9155C164.1 93.3836 163.85 93.9314 163.86 94.6784C163.86 96.3815 163.78 98.0846 163.78 99.7778C163.78 147.675 163.8 195.572 163.81 243.469C163.81 264.723 163.81 285.967 163.81 307.222V309.542C165.42 309.443 166.72 309.343 168.02 309.293C173.68 309.084 179.34 308.895 185 308.696C192.18 308.457 199.31 307.68 206.41 306.584C213.12 305.548 219.78 304.234 226.23 302.092C228.49 301.345 230.69 300.369 232.82 299.304C234.67 298.377 235.59 296.913 235.58 294.622C235.52 264.962 235.52 235.292 235.58 205.631L235.59 205.641ZM210.19 85.1567C211.56 79.1211 215.31 74.8184 218.59 75.5555C218.9 75.6252 219.2 75.7347 219.47 75.8941C219.79 75.8742 220.1 75.8941 220.41 75.9738C223.68 76.7108 225.22 82.1987 223.86 88.2343C222.49 94.27 218.73 98.5727 215.46 97.8356C215.15 97.7659 214.86 97.6564 214.58 97.497C214.26 97.5169 213.95 97.497 213.64 97.4173C210.37 96.6803 208.83 91.1924 210.19 85.1567ZM225.48 145.384C223.74 150.254 219.07 153.75 213.59 153.75H195.11C192.97 153.75 190.95 153.212 189.18 152.276C188.43 151.878 187.72 151.4 187.07 150.862C184.28 148.561 182.5 145.075 182.5 141.191V105.066H226.19V141.191C226.19 142.655 225.94 144.069 225.47 145.384H225.48Z" fill="#3E3E4B"/>
<path d="M186.17 141.191C186.17 142.535 186.47 143.82 187.01 144.966C187.53 146.071 188.27 147.047 189.18 147.854C190.76 149.248 192.84 150.105 195.11 150.105H213.59C218.52 150.105 222.53 146.111 222.53 141.201V108.732H186.17V141.201V141.191Z" fill="#3E3E4B"/>
<path d="M226.2 105.076H182.51V141.201C182.51 145.085 184.29 148.561 187.08 150.872C187.73 151.41 188.44 151.888 189.19 152.286C190.96 153.232 192.97 153.76 195.12 153.76H213.6C219.08 153.76 223.75 150.264 225.49 145.394C225.96 144.079 226.21 142.675 226.21 141.201V105.076H226.2ZM222.53 141.191C222.53 146.101 218.52 150.095 213.59 150.095H195.11C192.84 150.095 190.76 149.248 189.18 147.844C188.27 147.047 187.53 146.061 187.01 144.956C186.47 143.81 186.17 142.535 186.17 141.181V108.712H222.53V141.181V141.191Z" fill="#16161E"/>
<path d="M213.64 97.4173C213.95 97.4871 214.27 97.507 214.58 97.497C211.93 96.0528 210.78 91.0331 212.02 85.5751C213.26 80.1071 216.45 76.0734 219.47 75.9041C219.19 75.7547 218.9 75.6351 218.59 75.5654C215.32 74.8284 211.56 79.1311 210.19 85.1667C208.82 91.2024 210.37 96.6903 213.64 97.4273V97.4173Z" fill="#F4222D"/>
<path d="M212.02 85.5651C210.78 91.0331 211.93 96.0429 214.58 97.487C214.86 97.6364 215.15 97.756 215.46 97.8257C218.73 98.5627 222.49 94.26 223.86 88.2244C225.23 82.1887 223.68 76.7008 220.41 75.9638C220.1 75.8941 219.78 75.8742 219.47 75.8841C216.45 76.0534 213.25 80.0971 212.02 85.5551V85.5651ZM216.32 84.0114C216.74 83.0552 217.54 82.2385 218.5 81.8003C218.65 81.7305 218.79 81.7106 218.95 81.7405C219.02 81.7505 219.07 81.7903 219.13 81.8302C219.22 81.7604 219.31 81.7007 219.4 81.631C219.66 81.4318 220.04 81.6011 220.19 81.8401C220.33 82.0493 220.28 82.2883 220.14 82.4676C220.13 82.5174 220.11 82.5771 220.08 82.6269C219.74 83.2146 219.22 83.6628 218.71 84.101C218.53 84.2504 218.36 84.4197 218.2 84.5791C218.18 84.6189 218.17 84.6687 218.15 84.7086C218.1 84.848 218.06 84.9974 218.02 85.1468C217.96 85.3659 217.78 85.5053 217.58 85.5551C217.44 85.7344 217.21 85.8241 216.97 85.7743C216.67 85.7045 216.47 85.3559 216.57 85.0671C216.59 84.9974 216.62 84.9277 216.65 84.8579C216.61 84.848 216.57 84.8281 216.53 84.8081C216.4 84.7384 216.3 84.599 216.26 84.4596C216.22 84.3002 216.26 84.1608 216.32 84.0114ZM220.67 92.9055C220.57 93.2143 220.28 93.3836 219.96 93.3039C219.75 93.2541 219.59 93.0649 219.55 92.8557C218.82 93.1645 218.04 93.3338 217.25 93.3637C216.2 93.3935 215.12 93.2043 214.47 92.3079C213.15 90.4853 213.72 88.0451 214.29 86.0531C214.22 86.0033 214.16 85.9336 214.12 85.8639C214.04 85.7344 214.03 85.5651 214.06 85.4157C214.09 85.2763 214.21 85.1368 214.33 85.0671C214.47 84.9874 214.62 84.9775 214.78 85.0073C215.25 85.097 215.7 85.2663 216.12 85.4854C216.25 85.5551 216.34 85.6946 216.39 85.834C216.44 85.9834 216.4 86.1428 216.33 86.2822C216.26 86.4117 216.12 86.5113 215.98 86.5511C215.83 86.591 215.67 86.5611 215.53 86.4914C215.48 86.4714 215.44 86.4515 215.39 86.4216C214.92 88.0351 214.42 89.9076 215.31 91.4514C215.73 92.1784 216.54 92.2282 217.31 92.1884C218.15 92.1486 218.96 91.8996 219.69 91.4812C219.69 91.4115 219.69 91.3318 219.68 91.2621C219.66 91.1127 219.75 90.9633 219.85 90.8538C219.95 90.7442 220.11 90.6944 220.26 90.6845C220.4 90.6845 220.57 90.7542 220.67 90.8538C220.73 90.9036 220.77 90.9633 220.79 91.043C220.83 91.1127 220.84 91.1825 220.84 91.2621C220.91 91.8 220.85 92.3677 220.68 92.8856L220.67 92.9055ZM222.67 86.1926C222.46 87.1288 222.19 88.0551 221.83 88.9415C221.71 89.2403 221.45 89.4196 221.12 89.3399C220.92 89.2901 220.75 89.1008 220.7 88.8917C220.45 88.812 220.29 88.5531 220.31 88.3041C220.18 88.1547 220.12 87.9455 220.17 87.7563C220.28 87.2882 220.4 86.82 220.51 86.342C220.56 86.1428 220.63 85.9336 220.74 85.7643C220.83 85.6348 220.93 85.5253 221.07 85.4356C221.14 85.3858 221.21 85.3659 221.28 85.346C221.28 85.3261 221.29 85.3061 221.3 85.2862C221.41 84.9874 221.68 84.8081 222.01 84.8878C222.07 84.8978 222.12 84.9277 222.17 84.9575C222.24 84.9575 222.32 84.9575 222.39 84.9575C222.7 85.0273 222.86 85.3759 222.79 85.6647C222.75 85.834 222.7 86.0133 222.65 86.1826L222.67 86.1926Z" fill="#EAD82A"/>
<path d="M220.78 91.0629C220.76 90.9932 220.72 90.9335 220.66 90.8737C220.56 90.7741 220.39 90.6944 220.25 90.7044C220.1 90.7044 219.94 90.7641 219.84 90.8737C219.74 90.9733 219.65 91.1327 219.67 91.2821C219.67 91.3518 219.67 91.4315 219.68 91.5012C218.95 91.9195 218.14 92.1685 217.3 92.2083C216.53 92.2382 215.71 92.1984 215.3 91.4713C214.42 89.9275 214.92 88.0551 215.38 86.4416C215.43 86.4615 215.47 86.4814 215.52 86.5113C215.66 86.581 215.81 86.6109 215.97 86.571C216.1 86.5312 216.25 86.4316 216.32 86.3021C216.39 86.1727 216.43 86.0033 216.38 85.8539C216.33 85.7145 216.25 85.5751 216.11 85.5053C215.69 85.2862 215.24 85.1169 214.77 85.0273C214.62 84.9974 214.46 85.0074 214.32 85.087C214.2 85.1567 214.09 85.2962 214.05 85.4356C214.02 85.585 214.02 85.7444 214.11 85.8838C214.15 85.9535 214.21 86.0133 214.28 86.0731C213.7 88.065 213.14 90.5052 214.46 92.3278C215.11 93.2242 216.19 93.4135 217.24 93.3836C218.03 93.3537 218.81 93.1844 219.54 92.8756C219.58 93.0848 219.74 93.274 219.95 93.3238C220.27 93.3935 220.56 93.2242 220.66 92.9254C220.83 92.4075 220.89 91.8398 220.82 91.302C220.82 91.2223 220.81 91.1526 220.77 91.0829L220.78 91.0629Z" fill="#F4222D"/>
<path d="M222.4 84.9675C222.33 84.9476 222.25 84.9476 222.18 84.9675C222.13 84.9376 222.08 84.9078 222.02 84.8978C221.69 84.8281 221.42 84.9974 221.31 85.2962C221.31 85.3161 221.3 85.336 221.29 85.3559C221.22 85.3759 221.15 85.4058 221.08 85.4456C220.94 85.5352 220.84 85.6448 220.75 85.7743C220.63 85.9436 220.56 86.1527 220.52 86.3519C220.41 86.82 220.29 87.2882 220.18 87.7662C220.13 87.9555 220.19 88.1746 220.32 88.314C220.3 88.563 220.47 88.8319 220.71 88.9017C220.76 89.1108 220.93 89.31 221.13 89.3499C221.46 89.4295 221.72 89.2503 221.84 88.9515C222.19 88.0551 222.47 87.1388 222.68 86.2025C222.73 86.0332 222.78 85.8539 222.82 85.6846C222.89 85.3958 222.73 85.0472 222.42 84.9775L222.4 84.9675Z" fill="#F4222D"/>
<path d="M216.53 84.8082C216.53 84.8082 216.61 84.848 216.65 84.858C216.62 84.9277 216.6 84.9974 216.57 85.0671C216.48 85.3559 216.68 85.7145 216.97 85.7743C217.21 85.834 217.44 85.7444 217.58 85.5551C217.79 85.5153 217.96 85.3659 218.02 85.1468C218.06 84.9974 218.1 84.858 218.15 84.7086C218.16 84.6687 218.18 84.6189 218.2 84.5791C218.36 84.4098 218.53 84.2504 218.71 84.101C219.22 83.6528 219.73 83.2146 220.08 82.6269C220.11 82.5771 220.13 82.5274 220.14 82.4676C220.28 82.2883 220.33 82.0493 220.19 81.8401C220.04 81.6011 219.66 81.4417 219.4 81.631C219.31 81.7007 219.22 81.7604 219.13 81.8302C219.08 81.7903 219.02 81.7604 218.95 81.7405C218.79 81.7007 218.65 81.7405 218.5 81.8003C217.55 82.2285 216.74 83.0453 216.32 84.0114C216.26 84.1608 216.22 84.2902 216.26 84.4596C216.3 84.589 216.4 84.7384 216.53 84.8082Z" fill="#F4222D"/>
</svg>
